<?xml version="1.0" encoding="utf-8"?>
<!-- Generator: Adobe Illustrator 15.0.2, SVG Export Plug-In . SVG Version: 6.00 Build 0)  -->
<!DOCTYPE svg PUBLIC "-//W3C//DTD SVG 1.1//EN" "http://www.w3.org/Graphics/SVG/1.1/DTD/svg11.dtd">
<svg version="1.1" id="Layer_1" xmlns="http://www.w3.org/2000/svg" xmlns:xlink="http://www.w3.org/1999/xlink" x="0px" y="0px"
	 width="32px" height="32px" viewBox="0 0 32 32" enable-background="new 0 0 32 32" xml:space="preserve">
<g>
	<path fill="#6EBCEB" d="M26.474,13.25c-0.001-0.022,0.008-0.043,0.006-0.065c-0.459-4.523-4.078-8.108-8.604-8.524l-0.101-0.004
		c-0.559,0-1.019,0.42-1.07,0.976c-0.027,0.285,0.059,0.564,0.242,0.785c0.184,0.222,0.443,0.359,0.731,0.386
		c3.45,0.318,6.215,3.019,6.638,6.446H22.2l3.051,3.541l3.05-3.541H26.474z"/>
	<g>
		<path fill="#2E74A7" d="M7.773,25.424v-1.788H6v-0.747h1.773v-1.774h0.756v1.774h1.774v0.747H8.529v1.788H7.773z"/>
		<path fill="#2E74A7" d="M11.371,24.78l0.865-0.08c0.073,0.409,0.213,0.703,0.42,0.886c0.206,0.185,0.471,0.275,0.795,0.275
			c0.277,0,0.52-0.063,0.729-0.189c0.207-0.127,0.379-0.296,0.512-0.508c0.134-0.212,0.245-0.498,0.336-0.858
			c0.09-0.359,0.135-0.727,0.135-1.1c0-0.04-0.002-0.101-0.006-0.18c-0.18,0.286-0.426,0.519-0.736,0.697
			c-0.313,0.179-0.65,0.269-1.014,0.269c-0.606,0-1.12-0.222-1.541-0.661c-0.42-0.44-0.63-1.021-0.63-1.74
			c0-0.745,0.22-1.343,0.657-1.796c0.438-0.454,0.988-0.682,1.648-0.682c0.477,0,0.913,0.129,1.309,0.386
			c0.395,0.258,0.695,0.623,0.9,1.098c0.205,0.477,0.307,1.163,0.307,2.063c0,0.938-0.101,1.684-0.305,2.239
			c-0.203,0.555-0.506,0.977-0.908,1.268c-0.402,0.29-0.873,0.435-1.412,0.435c-0.574,0-1.043-0.158-1.406-0.477
			C11.662,25.806,11.443,25.358,11.371,24.78z M15.057,21.546c0-0.518-0.137-0.928-0.412-1.231
			c-0.275-0.303-0.606-0.455-0.993-0.455c-0.4,0-0.749,0.164-1.046,0.491c-0.296,0.326-0.445,0.749-0.445,1.27
			c0,0.467,0.141,0.847,0.424,1.138c0.281,0.293,0.629,0.438,1.043,0.438c0.416,0,0.759-0.145,1.027-0.438
			C14.922,22.467,15.057,22.062,15.057,21.546z"/>
		<path fill="#2E74A7" d="M16.933,22.86c0-0.867,0.089-1.564,0.268-2.093c0.177-0.527,0.442-0.936,0.795-1.224
			c0.353-0.286,0.795-0.431,1.328-0.431c0.394,0,0.738,0.082,1.035,0.239s0.541,0.386,0.736,0.685
			c0.192,0.298,0.346,0.662,0.454,1.09c0.11,0.43,0.165,1.006,0.165,1.733c0,0.859-0.088,1.556-0.266,2.083
			c-0.177,0.529-0.44,0.938-0.793,1.226c-0.35,0.289-0.795,0.433-1.332,0.433c-0.706,0-1.263-0.253-1.664-0.761
			C17.174,25.231,16.933,24.238,16.933,22.86z M17.857,22.86c0,1.205,0.142,2.005,0.423,2.404c0.281,0.397,0.63,0.597,1.043,0.597
			s0.762-0.2,1.043-0.601c0.283-0.399,0.423-1.2,0.423-2.4c0-1.208-0.14-2.01-0.423-2.406c-0.281-0.396-0.634-0.595-1.053-0.595
			c-0.413,0-0.744,0.175-0.991,0.525C18.013,20.831,17.857,21.657,17.857,22.86z"/>
		<path fill="#2E74A7" d="M22.916,19.73c0-0.427,0.15-0.789,0.453-1.089c0.303-0.301,0.663-0.451,1.086-0.451
			c0.431,0,0.795,0.15,1.096,0.451c0.3,0.3,0.449,0.662,0.449,1.089s-0.151,0.79-0.451,1.091c-0.303,0.303-0.669,0.454-1.094,0.454
			c-0.423,0-0.783-0.15-1.086-0.451C23.066,20.525,22.916,20.159,22.916,19.73z M23.522,19.73c0,0.26,0.091,0.479,0.273,0.665
			c0.185,0.182,0.405,0.273,0.665,0.273c0.256,0,0.477-0.092,0.657-0.273c0.185-0.186,0.277-0.405,0.277-0.665
			c0-0.261-0.093-0.48-0.277-0.664c-0.181-0.184-0.401-0.275-0.657-0.275c-0.26,0-0.48,0.092-0.665,0.275
			C23.613,19.25,23.522,19.47,23.522,19.73z"/>
	</g>
	<g>
		<path fill="#5C5C5C" d="M12.695,2.908c0.51-0.124,1.119-0.249,1.072-0.905s-0.688-0.719-1.072-0.637c0,0-0.051,0.012-0.077,0.018
			C7.041,2.666,2.658,7.052,1.38,12.63c-0.005,0.022,0.003,0-0.015,0.066c-0.098,0.37-0.066,1.01,0.512,1.057
			s0.877-0.474,0.969-0.859c0.014-0.053,0.078-0.263,0.087-0.296c1.228-4.735,4.952-8.453,9.69-9.67
			C12.646,2.921,12.695,2.908,12.695,2.908z"/>
		<path fill="#2E74A7" d="M29.112,12.811c0.124,0.51,0.249,1.119,0.905,1.072s0.719-0.688,0.638-1.072c0,0-0.012-0.052-0.018-0.078
			c-1.282-5.577-5.669-9.96-11.247-11.238C19.368,1.49,19.39,1.497,19.325,1.48c-0.37-0.097-1.011-0.066-1.058,0.512
			s0.474,0.876,0.859,0.969c0.054,0.013,0.263,0.078,0.296,0.086c4.734,1.228,8.453,4.952,9.671,9.69
			C29.1,12.762,29.112,12.811,29.112,12.811z"/>
		<path fill="#5C5C5C" d="M19.302,29.091c-0.51,0.125-1.119,0.25-1.072,0.906s0.688,0.719,1.072,0.637c0,0,0.052-0.012,0.078-0.018
			c5.576-1.282,9.96-5.668,11.238-11.246c0.004-0.022-0.003-0.001,0.014-0.066c0.098-0.369,0.066-1.01-0.512-1.057
			s-0.876,0.474-0.969,0.859c-0.013,0.053-0.078,0.263-0.086,0.295c-1.229,4.735-4.952,8.453-9.69,9.671
			C19.351,29.079,19.302,29.091,19.302,29.091z"/>
		<path fill="#5C5C5C" d="M2.888,19.239c-0.124-0.51-0.249-1.119-0.905-1.072s-0.719,0.688-0.637,1.072c0,0,0.012,0.053,0.018,0.078
			c1.281,5.577,5.668,9.961,11.246,11.238c0.021,0.006,0-0.002,0.066,0.016c0.369,0.096,1.01,0.064,1.057-0.514
			s-0.475-0.875-0.859-0.969c-0.053-0.012-0.264-0.078-0.296-0.086c-4.735-1.228-8.452-4.951-9.671-9.689
			C2.9,19.288,2.888,19.239,2.888,19.239z"/>
	</g>
</g>
</svg>
