<?xml version="1.0" encoding="utf-8"?>
<!-- Generator: Adobe Illustrator 15.0.2, SVG Export Plug-In . SVG Version: 6.00 Build 0)  -->
<!DOCTYPE svg PUBLIC "-//W3C//DTD SVG 1.1//EN" "http://www.w3.org/Graphics/SVG/1.1/DTD/svg11.dtd">
<svg version="1.1" id="Layer_1" xmlns="http://www.w3.org/2000/svg" xmlns:xlink="http://www.w3.org/1999/xlink" x="0px" y="0px"
	 width="24px" height="24px" viewBox="0 0 24 24" enable-background="new 0 0 24 24" xml:space="preserve">
<g>
	<path fill="#2E74A7" d="M22.321,14.869c-0.015-0.021-0.028-0.039-0.046-0.057l-6.674-6.71c-0.153-0.156-0.37-0.245-0.592-0.245
		c-0.461,0-0.838,0.375-0.838,0.837l0.002,1.563v0.674c1.614,1.625,3.187,3.205,3.193,3.214l0.133,0.161
		c0.232,0.331,0.355,0.717,0.355,1.121s-0.123,0.791-0.354,1.117c0,0-0.141,0.172-0.152,0.186l-3.184,3.197L14.162,20.6v1.563H14.16
		c0,0.463,0.377,0.838,0.837,0.838c0.228,0,0.437-0.086,0.595-0.244l6.684-6.713c0.018-0.017,0.031-0.033,0.046-0.053
		c0.116-0.166,0.179-0.359,0.179-0.563C22.5,15.228,22.438,15.033,22.321,14.869z"/>
	<g>
		<path fill="none" d="M16.296,15.65c0.039-0.066,0.06-0.142,0.06-0.223c0-0.082-0.021-0.156-0.062-0.227l-0.042-0.051
			c-0.124-0.125-0.513-0.517-1.035-1.042v2.63L16.296,15.65z"/>
		<path fill="#5C5C5C" d="M14.323,17.639h-1.699v-1.883h1.882v1.698l0.711-0.716v-2.63c-0.045-0.046-0.085-0.085-0.132-0.133
			l-0.579-0.583v0.385h-1.882v-1.884h0.391l-0.341-0.343l-0.001-1.539h-0.049V8.128h0.126c0.255-1.015,1.168-1.771,2.26-1.771
			c0.07,0,0.138,0.015,0.207,0.021V3.305C15.217,2.032,14.185,1,12.911,1H3.805C2.532,1,1.5,2.032,1.5,3.305v15.39
			C1.5,19.969,2.532,21,3.805,21h8.859l0.006-1.695L14.323,17.639z M12.624,4.363h1.882v1.882h-1.882V4.363z M11.441,9.02H5.274
			V5.253h6.167V9.02z M11.441,16.664H5.275V12.9h6.166V16.664z M3.824,17.588H1.941v-1.881h1.883V17.588z M3.824,13.725H1.941
			v-1.881h1.883V13.725z M3.824,9.96H1.941V8.078h1.883V9.96z M3.824,6.195H1.941V4.312h1.883V6.195z"/>
		<rect x="1.941" y="4.312" fill="#FFFFFF" width="1.883" height="1.883"/>
		<rect x="1.941" y="8.078" fill="#FFFFFF" width="1.883" height="1.883"/>
		<rect x="1.941" y="11.843" fill="#FFFFFF" width="1.883" height="1.881"/>
		<rect x="1.941" y="15.707" fill="#FFFFFF" width="1.883" height="1.881"/>
		<rect x="12.624" y="4.363" fill="#FFFFFF" width="1.882" height="1.882"/>
		<path fill="#FFFFFF" d="M12.624,10.011h0.049l-0.001-1.315c0-0.197,0.032-0.385,0.078-0.568h-0.126V10.011z"/>
		<polygon fill="#FFFFFF" points="12.624,13.777 14.506,13.777 14.506,13.393 13.015,11.893 12.624,11.893 		"/>
		<polygon fill="#FFFFFF" points="12.624,15.756 12.624,17.639 14.323,17.639 14.506,17.454 14.506,15.756 		"/>
		<rect x="5.274" y="5.253" fill="#FFFFFF" width="6.167" height="3.766"/>
		<rect x="5.275" y="12.9" fill="#FFFFFF" width="6.166" height="3.764"/>
	</g>
</g>
</svg>
