<?xml version="1.0" encoding="UTF-8" standalone="no"?>
<!-- Created with Inkscape (http://www.inkscape.org/) -->

<svg
   xmlns:dc="http://purl.org/dc/elements/1.1/"
   xmlns:cc="http://creativecommons.org/ns#"
   xmlns:rdf="http://www.w3.org/1999/02/22-rdf-syntax-ns#"
   xmlns:svg="http://www.w3.org/2000/svg"
   xmlns="http://www.w3.org/2000/svg"
   version="1.1"
   width="24"
   height="24"
   viewBox="0 0 24 24"
   id="Layer_1"
   xml:space="preserve"><metadata
   id="metadata21"><rdf:RDF><cc:Work
       rdf:about=""><dc:format>image/svg+xml</dc:format><dc:type
         rdf:resource="http://purl.org/dc/dcmitype/StillImage" /><dc:title></dc:title></cc:Work></rdf:RDF></metadata><defs
   id="defs19">
	
	
</defs>
<path
   d="m 1.682,11.4295 c 0.016,-0.021 0.031,-0.039 0.048,-0.058 l 6.853,-6.891 c 0.159,-0.16 0.38,-0.252 0.607,-0.252 0.475,0 0.86,0.386 0.86,0.86 l -0.002,1.605 v 0.692 c -1.658,1.669 -3.271,3.292 -3.28,3.301 l -0.135,0.164 c -0.239,0.34 -0.366,0.736 -0.366,1.152 0,0.414 0.127,0.813 0.363,1.146 0,0 0.144,0.177 0.157,0.189 l 3.27,3.282 0.003,0.69 v 1.604 h 0.002 c 0,0.476 -0.387,0.858 -0.86,0.858 -0.23,0 -0.446,-0.088 -0.608,-0.25 L 1.73,12.6365 C 1.713,12.6175 1.698,12.6015 1.682,12.5795 1.563,12.4095 1.5,12.2105 1.5,12.0045 c 0,-0.206 0.063,-0.405 0.182,-0.575 z"
   id="path15"
   style="fill:#2e74a7" />
<path
   d="M 8.0036581,10.700008 C 7.390426,10.750328 6.90625,11.314919 6.90625,11.999467 c 0,0.684548 0.484176,1.24914 1.0974081,1.299459 0.029672,0.0024 0.058738,0 0.088979,0 l 13.2875369,0 c 0.655223,0 1.186387,-0.581788 1.186387,-1.299459 0,-0.717672 -0.531164,-1.299459 -1.186387,-1.299459 l -13.2875369,0 -0.088979,0 z"
   id="rect3772"
   style="fill:#5c5c5c;fill-opacity:1;stroke:none" /></svg>