<?xml version="1.0" encoding="UTF-8" standalone="no"?>
<!-- Created with Inkscape (http://www.inkscape.org/) -->
<svg id="svg4309" xmlns:rdf="http://www.w3.org/1999/02/22-rdf-syntax-ns#" xmlns="http://www.w3.org/2000/svg" height="32px" width="32px" version="1.1" xmlns:cc="http://creativecommons.org/ns#" xmlns:dc="http://purl.org/dc/elements/1.1/">
 <metadata id="metadata4314">
  <rdf:RDF>
   <cc:Work rdf:about="">
    <dc:format>image/svg+xml</dc:format>
    <dc:type rdf:resource="http://purl.org/dc/dcmitype/StillImage"/>
    <dc:title/>
   </cc:Work>
  </rdf:RDF>
 </metadata>
 <g id="layer1">
  <path id="path4317" transform="matrix(2.1471229,0.4960677,-0.4960677,2.1471229,2.0009199,-11.665342)" fill="#2e74a7" d="M3.9783,5.2257c0.1548-0.0801,1.9824,1.9241,2.1548,1.9504,0.1724,0.0262,2.5134-1.3439,2.6374-1.2213,0.1241,0.1225-1.2173,2.48-1.189,2.6521,0.0283,0.172,2.0548,1.9751,1.9765,2.1311-0.0782,0.156-2.7348-0.392-2.8897-0.312-0.1549,0.081-1.2434,2.565-1.4158,2.539s-0.4729-2.722-0.5969-2.845c-0.1241-0.1223-2.8233-0.3898-2.8516-0.5619-0.0283-0.172,2.4426-1.2908,2.5208-1.4467,0.0782-0.1558-0.5014-2.8056-0.3465-2.8857z"/>
  <g id="g4835" fill="#5c5c5c" transform="matrix(0.96938768,0,0,1.0967462,5.7664396,-1.2739121)">
   <path id="path4321" d="m14.271,14.635,0,13.387-7.6408-6.6936z"/>
   <rect id="rect4831" height="4.0633" width="11.252" y="19.297" x="13.753"/>
   <rect id="rect4833" height="13.387" width="3.3042" y="14.635" x="3.1257"/>
  </g>
 </g>
</svg>
