<?xml version="1.0" encoding="UTF-8" standalone="no"?>
<!-- Generator: Adobe Illustrator 15.0.2, SVG Export Plug-In . SVG Version: 6.00 Build 0)  -->

<svg
   xmlns:dc="http://purl.org/dc/elements/1.1/"
   xmlns:cc="http://creativecommons.org/ns#"
   xmlns:rdf="http://www.w3.org/1999/02/22-rdf-syntax-ns#"
   xmlns:svg="http://www.w3.org/2000/svg"
   xmlns="http://www.w3.org/2000/svg"
   xmlns:sodipodi="http://sodipodi.sourceforge.net/DTD/sodipodi-0.dtd"
   xmlns:inkscape="http://www.inkscape.org/namespaces/inkscape"
   version="1.1"
   id="Layer_1"
   x="0px"
   y="0px"
   width="24px"
   height="24px"
   viewBox="0 0 24 24"
   enable-background="new 0 0 24 24"
   xml:space="preserve"
   inkscape:version="0.48.3.1 r9886"
   sodipodi:docname="action.forceCine.svg"><metadata
   id="metadata15"><rdf:RDF><cc:Work
       rdf:about=""><dc:format>image/svg+xml</dc:format><dc:type
         rdf:resource="http://purl.org/dc/dcmitype/StillImage" /></cc:Work></rdf:RDF></metadata><defs
   id="defs13" /><sodipodi:namedview
   pagecolor="#ffffff"
   bordercolor="#666666"
   borderopacity="1"
   objecttolerance="10"
   gridtolerance="10"
   guidetolerance="10"
   inkscape:pageopacity="0"
   inkscape:pageshadow="2"
   inkscape:window-width="968"
   inkscape:window-height="1019"
   id="namedview11"
   showgrid="false"
   inkscape:zoom="128"
   inkscape:cx="8.3575584"
   inkscape:cy="20.104076"
   inkscape:window-x="202"
   inkscape:window-y="266"
   inkscape:window-maximized="0"
   inkscape:current-layer="Layer_1" />
<path
   style="fill:#5c5c5c;stroke:none"
   inkscape:connector-curvature="0"
   id="path5"
   d="m 11.596,7.7016097 c 0.493,-0.4997545 1.179,-0.7540501 2.037,-0.7540501 h 0.352 c 0.973,0 3.665,1.4403535 6.083,3.2184584 H 23 V 4.167 H 1 v 6 h 9.848 C 10.836,9.3039661 10.913,8.394786 11.596,7.7016097 z" /><rect
   style="fill:#6ebceb;stroke:none"
   id="rect7"
   height="11"
   width="4"
   y="1.6109999"
   x="5.4310002" /><path
   style="fill:#2e74a7"
   inkscape:connector-curvature="0"
   id="path9"
   d="m 23,15.391 c 0,1.611 -7.608,6.998 -9.195,6.998 h -0.172 c -1.59,0 -1.259,-1.3 -1.259,-2.915 v -8.167 c 0,-1.612 -0.331,-2.917 1.259,-2.917 h 0.352 C 15.571,8.389 23,13.778 23,15.391 l 0,0 z" />
</svg>