<?xml version="1.0" encoding="UTF-8" standalone="no"?>
<!-- Created with Inkscape (http://www.inkscape.org/) -->
<svg id="svg2985" xmlns:rdf="http://www.w3.org/1999/02/22-rdf-syntax-ns#" xmlns="http://www.w3.org/2000/svg" height="64px" width="64px" version="1.1" xmlns:cc="http://creativecommons.org/ns#" xmlns:dc="http://purl.org/dc/elements/1.1/">
 <metadata id="metadata2990">
  <rdf:RDF>
   <cc:Work rdf:about="">
    <dc:format>image/svg+xml</dc:format>
    <dc:type rdf:resource="http://purl.org/dc/dcmitype/StillImage"/>
    <dc:title/>
   </cc:Work>
  </rdf:RDF>
 </metadata>
 <g id="layer1">
  <path id="path3791" fill="#2e74a7" d="M32.031,14.219c-13.444,0-24.843,7.501-28.75,17.875,4.0078,10.275,15.374,17.687,28.75,17.687,13.377,0,24.711-7.412,28.719-17.687-3.907-10.374-15.275-17.875-28.719-17.875zm-0.031,5.281c6.904,0,12.5,5.596,12.5,12.5s-5.596,12.5-12.5,12.5-12.5-5.596-12.5-12.5,5.596-12.5,12.5-12.5z"/>
  <path id="path3799" d="m-22,9.5909a9.5455,6.4091,0,1,1,-19.091,0,9.5455,6.4091,0,1,1,19.091,0z" transform="matrix(0.5238095,0,0,0.78014184,48.523809,24.517731)" fill="#5c5c5c"/>
 </g>
</svg>
