<?xml version="1.0" encoding="utf-8"?>
<!-- Generator: Adobe Illustrator 15.0.2, SVG Export Plug-In . SVG Version: 6.00 Build 0)  -->
<!DOCTYPE svg PUBLIC "-//W3C//DTD SVG 1.1//EN" "http://www.w3.org/Graphics/SVG/1.1/DTD/svg11.dtd">
<svg version="1.1" id="Layer_1" xmlns="http://www.w3.org/2000/svg" xmlns:xlink="http://www.w3.org/1999/xlink" x="0px" y="0px"
	 width="32px" height="32px" viewBox="0 0 32 32" enable-background="new 0 0 32 32" xml:space="preserve">
<g>
	<g>
		<path fill="#5C5C5C" d="M12.696,2.908c0.51-0.124,1.119-0.249,1.072-0.905c-0.047-0.656-0.688-0.719-1.072-0.637
			c0,0-0.052,0.012-0.078,0.018C7.041,2.666,2.658,7.052,1.38,12.63c-0.005,0.022,0.002,0-0.015,0.066
			c-0.097,0.37-0.066,1.01,0.512,1.057s0.876-0.474,0.969-0.859c0.013-0.053,0.078-0.263,0.086-0.296
			c1.228-4.735,4.952-8.453,9.69-9.67C12.647,2.921,12.696,2.908,12.696,2.908z"/>
		<path fill="#5C5C5C" d="M29.111,12.811c0.125,0.51,0.25,1.119,0.906,1.072c0.655-0.047,0.719-0.688,0.637-1.072
			c0,0-0.012-0.052-0.018-0.078c-1.281-5.577-5.669-9.96-11.246-11.238c-0.022-0.005,0,0.002-0.065-0.015
			c-0.37-0.097-1.011-0.066-1.058,0.512c-0.047,0.578,0.474,0.876,0.858,0.969c0.054,0.013,0.263,0.078,0.296,0.086
			c4.734,1.228,8.453,4.952,9.671,9.69C29.1,12.762,29.111,12.811,29.111,12.811z"/>
		<path fill="#5C5C5C" d="M19.303,29.091c-0.511,0.125-1.119,0.25-1.072,0.906c0.047,0.655,0.688,0.719,1.072,0.637
			c0,0,0.051-0.012,0.077-0.018c5.576-1.282,9.96-5.669,11.238-11.246c0.004-0.022-0.003-0.001,0.014-0.065
			c0.099-0.369,0.065-1.011-0.512-1.058c-0.578-0.047-0.876,0.474-0.97,0.858c-0.012,0.054-0.078,0.264-0.086,0.295
			c-1.229,4.736-4.951,8.453-9.689,9.672C19.352,29.079,19.303,29.091,19.303,29.091z"/>
		<path fill="#5C5C5C" d="M2.888,19.238c-0.124-0.51-0.249-1.118-0.905-1.071c-0.656,0.047-0.719,0.688-0.637,1.071
			c0,0,0.012,0.054,0.018,0.078c1.282,5.578,5.668,9.961,11.247,11.238c0.021,0.006,0-0.002,0.066,0.016
			c0.369,0.097,1.01,0.064,1.057-0.514s-0.475-0.875-0.859-0.969c-0.053-0.012-0.264-0.078-0.296-0.086
			c-4.735-1.229-8.453-4.951-9.67-9.689C2.9,19.288,2.888,19.238,2.888,19.238z"/>
	</g>
</g>
<g>
	<circle fill="#5C5C5C" cx="16" cy="16" r="10.95"/>
	<path fill="#FFFFFF" d="M16,16c0,5.521,0,10,0,10c-5.523,0-10-4.479-10-10c0-5.523,4.477-10,10-10C16,6,16,10.477,16,16z"/>
	<g>
		<g>
			<g>
				<line fill="none" stroke="#FFFFFF" stroke-width="3" x1="15.122" y1="13.811" x2="20.305" y2="13.811"/>
				<g>
					<polygon fill="#FFFFFF" points="19.43,16.786 24.609,13.794 19.43,10.803 					"/>
				</g>
			</g>
		</g>
		<g>
			<line fill="none" stroke="#5C5C5C" stroke-width="3" x1="16.878" y1="18.189" x2="11.696" y2="18.189"/>
			<g>
				<polygon fill="#5C5C5C" points="12.571,15.215 7.39,18.206 12.571,21.197 				"/>
			</g>
		</g>
	</g>
</g>
</svg>
