<?xml version="1.0" encoding="utf-8"?>
<!-- Generator: Adobe Illustrator 15.0.2, SVG Export Plug-In . SVG Version: 6.00 Build 0)  -->
<!DOCTYPE svg PUBLIC "-//W3C//DTD SVG 1.1//EN" "http://www.w3.org/Graphics/SVG/1.1/DTD/svg11.dtd">
<svg version="1.1" id="Layer_1" xmlns="http://www.w3.org/2000/svg" xmlns:xlink="http://www.w3.org/1999/xlink" x="0px" y="0px"
	 width="24px" height="24px" viewBox="0 0 24 24" enable-background="new 0 0 24 24" xml:space="preserve">
<g>
	<path fill="#6EBCEB" d="M12,3.922c-4.452,0-8.078,3.624-8.078,8.078c0,4.454,3.626,8.078,8.078,8.078
		c4.454,0,8.078-3.624,8.078-8.078C20.078,7.545,16.454,3.922,12,3.922z"/>
	<path fill="#FFFFFF" d="M16.69,12c0,1.266-5.985,5.5-7.233,5.5H9.32c-1.248,0-0.988-1.025-0.988-2.293V8.791
		c0-1.265-0.26-2.291,0.988-2.291h0.277C10.848,6.5,16.69,10.733,16.69,12L16.69,12z"/>
	<g>
		<g>
			<path fill="#5C5C5C" d="M9.521,2.178c0.382-0.093,0.839-0.187,0.804-0.679S9.81,0.96,9.521,1.021c0,0-0.039,0.009-0.059,0.013
				C5.279,1.996,1.99,5.287,1.031,9.472c-0.004,0.017,0.002,0-0.011,0.049c-0.073,0.277-0.05,0.758,0.384,0.793
				s0.658-0.355,0.727-0.645c0.011-0.04,0.059-0.197,0.066-0.222c0.92-3.552,3.715-6.341,7.27-7.255
				C9.484,2.188,9.521,2.178,9.521,2.178z"/>
			<path fill="#5C5C5C" d="M21.837,9.607c0.094,0.383,0.188,0.84,0.68,0.805s0.539-0.516,0.479-0.805c0,0-0.009-0.039-0.014-0.059
				c-0.962-4.184-4.253-7.472-8.438-8.431c-0.017-0.003-0.001,0.002-0.049-0.011c-0.278-0.073-0.759-0.05-0.794,0.384
				c-0.035,0.434,0.355,0.657,0.645,0.727c0.041,0.009,0.197,0.059,0.223,0.065c3.552,0.921,6.342,3.715,7.255,7.27
				C21.828,9.57,21.837,9.607,21.837,9.607z"/>
			<path fill="#5C5C5C" d="M14.478,21.821c-0.383,0.094-0.84,0.188-0.805,0.68s0.516,0.539,0.805,0.478c0,0,0.038-0.009,0.059-0.013
				c4.183-0.962,7.472-4.253,8.431-8.438c0.003-0.017-0.002-0.001,0.011-0.05c0.073-0.277,0.05-0.758-0.384-0.793
				c-0.435-0.035-0.657,0.355-0.728,0.645c-0.009,0.04-0.059,0.197-0.064,0.222c-0.921,3.553-3.715,6.342-7.27,7.255
				C14.514,21.813,14.478,21.821,14.478,21.821z"/>
			<path fill="#5C5C5C" d="M2.163,14.43c-0.093-0.382-0.187-0.839-0.679-0.804c-0.493,0.035-0.54,0.516-0.479,0.804
				c0,0,0.009,0.04,0.014,0.059c0.961,4.185,4.252,7.474,8.438,8.432c0.016,0.005,0-0.001,0.049,0.012
				c0.277,0.072,0.758,0.049,0.793-0.386c0.035-0.434-0.355-0.656-0.645-0.727c-0.039-0.009-0.197-0.059-0.223-0.064
				c-3.553-0.921-6.34-3.714-7.255-7.27C2.172,14.467,2.163,14.43,2.163,14.43z"/>
		</g>
	</g>
</g>
</svg>
