<?xml version="1.0" encoding="utf-8"?>
<!-- Generator: Adobe Illustrator 15.0.2, SVG Export Plug-In . SVG Version: 6.00 Build 0)  -->
<!DOCTYPE svg PUBLIC "-//W3C//DTD SVG 1.1//EN" "http://www.w3.org/Graphics/SVG/1.1/DTD/svg11.dtd">
<svg version="1.1" id="Layer_1" xmlns="http://www.w3.org/2000/svg" xmlns:xlink="http://www.w3.org/1999/xlink" x="0px" y="0px"
	 width="32px" height="32px" viewBox="0 0 32 32" enable-background="new 0 0 32 32" xml:space="preserve">
<g>
	<path fill="#6EBCEB" d="M14.179,2.813c0,0-0.007,23.867-0.059,24.968c0,1.584-0.41,2.268-2.328,2.268
		c-0.392,0-9.46-0.051-9.87-0.035c-1.437,0-0.766-1.299-0.766-1.299S11.664,2.859,11.702,2.771c0,0,0.034-0.099,0.062-0.209
		C12.161,1.751,13.803,1.665,14.179,2.813z"/>
	<path fill="#5C5C5C" d="M17.821,2.813c0,0,0.009,23.867,0.061,24.968c0,1.584,0.409,2.268,2.325,2.268
		c0.395,0,9.463-0.052,9.872-0.035c1.436,0,0.766-1.299,0.766-1.299S20.336,2.859,20.301,2.771c0,0-0.035-0.099-0.064-0.209
		C19.841,1.751,18.198,1.665,17.821,2.813z"/>
</g>
</svg>
