<?xml version="1.0" encoding="utf-8"?>
<!-- Generator: Adobe Illustrator 15.0.2, SVG Export Plug-In . SVG Version: 6.00 Build 0)  -->
<!DOCTYPE svg PUBLIC "-//W3C//DTD SVG 1.1//EN" "http://www.w3.org/Graphics/SVG/1.1/DTD/svg11.dtd">
<svg version="1.1" id="Layer_1" xmlns="http://www.w3.org/2000/svg" xmlns:xlink="http://www.w3.org/1999/xlink" x="0px" y="0px"
	 width="24px" height="24px" viewBox="0 0 24 24" enable-background="new 0 0 24 24" xml:space="preserve">
<g>
	<path fill="#6EBCEB" d="M12,3.922c-4.452,0-8.078,3.624-8.078,8.078S7.548,20.078,12,20.078c4.454,0,8.078-3.624,8.078-8.078
		C20.078,7.545,16.454,3.922,12,3.922z"/>
	<g>
		
			<line fill="none" stroke="#FFFFFF" stroke-width="2" stroke-linecap="round" stroke-miterlimit="10" x1="9.471" y1="7.528" x2="9.471" y2="16.57"/>
		
			<line fill="none" stroke="#FFFFFF" stroke-width="2" stroke-linecap="round" stroke-miterlimit="10" x1="14.529" y1="7.429" x2="14.529" y2="16.471"/>
	</g>
	<g>
		<g>
			<path fill="#5C5C5C" d="M9.521,2.178c0.382-0.093,0.839-0.187,0.804-0.679C10.29,1.007,9.81,0.96,9.521,1.021
				c0,0-0.038,0.009-0.058,0.013C5.279,1.996,1.991,5.287,1.032,9.472c-0.004,0.017,0.002,0-0.011,0.049
				c-0.073,0.277-0.05,0.758,0.384,0.793c0.434,0.035,0.658-0.355,0.727-0.645c0.01-0.04,0.059-0.197,0.065-0.222
				c0.921-3.552,3.715-6.341,7.27-7.255C9.484,2.188,9.521,2.178,9.521,2.178z"/>
			<path fill="#5C5C5C" d="M21.837,9.607c0.095,0.383,0.188,0.84,0.681,0.805c0.491-0.035,0.539-0.516,0.479-0.805
				c0,0-0.01-0.039-0.014-0.059c-0.963-4.184-4.254-7.472-8.438-8.431c-0.017-0.003-0.001,0.002-0.049-0.011
				c-0.278-0.073-0.759-0.05-0.794,0.384c-0.035,0.434,0.355,0.657,0.645,0.727c0.041,0.009,0.197,0.059,0.223,0.065
				c3.553,0.921,6.343,3.715,7.256,7.27C21.828,9.57,21.837,9.607,21.837,9.607z"/>
			<path fill="#5C5C5C" d="M14.479,21.82c-0.383,0.095-0.84,0.188-0.806,0.681c0.035,0.492,0.517,0.539,0.806,0.478
				c0,0,0.037-0.008,0.059-0.013c4.184-0.962,7.472-4.253,8.431-8.438c0.003-0.016-0.002,0,0.011-0.049
				c0.074-0.277,0.051-0.758-0.383-0.793c-0.436-0.035-0.658,0.354-0.729,0.645c-0.01,0.04-0.059,0.197-0.064,0.223
				c-0.921,3.553-3.715,6.342-7.27,7.254C14.514,21.813,14.479,21.82,14.479,21.82z"/>
			<path fill="#5C5C5C" d="M2.163,14.43c-0.093-0.382-0.187-0.839-0.679-0.804c-0.493,0.035-0.54,0.517-0.478,0.804
				c0,0,0.009,0.041,0.013,0.059c0.961,4.186,4.252,7.475,8.438,8.433c0.016,0.005,0-0.001,0.05,0.013
				c0.277,0.071,0.757,0.049,0.792-0.387c0.035-0.434-0.356-0.656-0.645-0.727c-0.04-0.01-0.198-0.059-0.222-0.064
				c-3.553-0.921-6.341-3.714-7.255-7.27C2.172,14.467,2.163,14.43,2.163,14.43z"/>
		</g>
	</g>
</g>
</svg>
