<?xml version="1.0" encoding="utf-8"?>
<!-- Generator: Adobe Illustrator 15.0.2, SVG Export Plug-In . SVG Version: 6.00 Build 0)  -->
<!DOCTYPE svg PUBLIC "-//W3C//DTD SVG 1.1//EN" "http://www.w3.org/Graphics/SVG/1.1/DTD/svg11.dtd">
<svg version="1.1" id="Layer_1" xmlns="http://www.w3.org/2000/svg" xmlns:xlink="http://www.w3.org/1999/xlink" x="0px" y="0px"
	 width="32px" height="32px" viewBox="0 0 32 32" enable-background="new 0 0 32 32" xml:space="preserve">
<g>
	<path fill="#6EBCEB" d="M29.188,14.178c0,0-23.866-0.007-24.969-0.059c-1.583,0-2.268-0.41-2.268-2.328
		c0-0.392,0.052-9.46,0.035-9.87c0-1.437,1.299-0.766,1.299-0.766s25.856,10.507,25.944,10.545c0,0,0.099,0.034,0.209,0.062
		C30.249,12.161,30.336,13.803,29.188,14.178z"/>
	<path fill="#5C5C5C" d="M29.188,17.82c0,0-23.866,0.009-24.969,0.061c-1.583,0-2.268,0.409-2.268,2.325
		c0,0.395,0.052,9.463,0.035,9.872c0,1.436,1.299,0.766,1.299,0.766S29.142,20.335,29.229,20.3c0,0,0.099-0.035,0.209-0.064
		C30.249,19.84,30.336,18.197,29.188,17.82z"/>
</g>
</svg>
