<?xml version="1.0" encoding="utf-8"?>
<!-- Generator: Adobe Illustrator 15.0.2, SVG Export Plug-In . SVG Version: 6.00 Build 0)  -->
<!DOCTYPE svg PUBLIC "-//W3C//DTD SVG 1.1//EN" "http://www.w3.org/Graphics/SVG/1.1/DTD/svg11.dtd">
<svg version="1.1" id="Layer_1" xmlns="http://www.w3.org/2000/svg" xmlns:xlink="http://www.w3.org/1999/xlink" x="0px" y="0px"
	 width="24px" height="24px" viewBox="0 0 24 24" enable-background="new 0 0 24 24" xml:space="preserve">
<g>
	<g>
		<g>
			<path fill="#FFFFFF" d="M9.08,6.78c0.618,0,1.121-0.503,1.121-1.121v-2.01L7.058,6.78H9.08z"/>
			<path fill="#FFFFFF" d="M17.587,2.65h-3.918h-1.817v3.009c0,1.529-1.243,2.772-2.772,2.772H5.947v4.68h12.76
				c-0.001-4.605-0.001-9.327-0.001-9.339C18.706,3.154,18.204,2.65,17.587,2.65z"/>
			<path fill="#5C5C5C" d="M5.947,13.111v-4.68H9.08c1.529,0,2.772-1.244,2.772-2.772V2.65h1.817h3.918
				c0.617,0,1.119,0.504,1.119,1.123c0,0.012,0,4.733,0.001,9.339h1.648c0.001-4.605,0.001-9.325,0.001-9.339
				c0-1.529-1.242-2.772-2.77-2.772h-3.918h-2.805c-0.219,0-0.43,0.086-0.583,0.241L4.54,6.958C4.384,7.113,4.297,7.324,4.297,7.542
				v5.569H5.947z M10.201,5.659c0,0.618-0.503,1.121-1.121,1.121H7.058l3.144-3.131V5.659z"/>
		</g>
	</g>
	<g>
		<rect x="1.105" y="14.03" fill="#6EBCEB" width="21.789" height="8.97"/>
		<g>
			<path fill="#FFFFFF" d="M4.398,15.568c0.423-0.071,1.018-0.125,1.854-0.125c0.847,0,1.449,0.162,1.854,0.486
				c0.396,0.305,0.648,0.81,0.648,1.404c0,0.594-0.189,1.107-0.558,1.439c-0.469,0.433-1.162,0.64-1.972,0.64
				c-0.181,0-0.343-0.009-0.469-0.036v2.179H4.398V15.568z M5.758,18.324c0.117,0.026,0.252,0.035,0.459,0.035
				c0.729,0,1.18-0.369,1.18-0.98c0-0.559-0.387-0.892-1.08-0.892c-0.271,0-0.459,0.019-0.559,0.045V18.324z"/>
			<path fill="#FFFFFF" d="M9.628,15.578c0.504-0.081,1.161-0.135,1.846-0.135c1.161,0,1.917,0.215,2.493,0.647
				c0.631,0.468,1.026,1.216,1.026,2.287c0,1.161-0.423,1.962-0.999,2.457c-0.64,0.531-1.621,0.784-2.809,0.784
				c-0.712,0-1.225-0.046-1.558-0.091V15.578z M10.996,20.521c0.117,0.027,0.315,0.027,0.478,0.027
				c1.251,0.009,2.07-0.676,2.07-2.125c0-1.261-0.738-1.927-1.927-1.927c-0.297,0-0.504,0.027-0.621,0.055V20.521z"/>
			<path fill="#FFFFFF" d="M15.901,15.488h3.7v1.125H17.27V18h2.179v1.115H17.27v2.44h-1.368V15.488z"/>
		</g>
	</g>
</g>
</svg>
