<?xml version="1.0" encoding="utf-8"?>
<!-- Generator: Adobe Illustrator 15.0.2, SVG Export Plug-In . SVG Version: 6.00 Build 0)  -->
<!DOCTYPE svg PUBLIC "-//W3C//DTD SVG 1.1//EN" "http://www.w3.org/Graphics/SVG/1.1/DTD/svg11.dtd">
<svg version="1.1" id="Layer_1" xmlns="http://www.w3.org/2000/svg" xmlns:xlink="http://www.w3.org/1999/xlink" x="0px" y="0px"
	 width="24px" height="24px" viewBox="0 0 24 24" enable-background="new 0 0 24 24" xml:space="preserve">
<g>
	<polygon fill="#FFFFFF" points="16.75,6.984 15.022,5.445 19.045,1.756 21.563,3.438 	"/>
	<path fill="#5C5C5C" d="M22.5,4.806c0-0.882-0.344-1.712-0.969-2.337c-0.624-0.625-1.454-0.97-2.34-0.97
		c-0.881,0-1.711,0.345-2.336,0.97l-2.25,2.25c-0.799-0.781-2.078-0.778-2.871,0.013c-0.797,0.797-0.797,2.089,0,2.886l4.647,4.646
		c0.397,0.399,0.921,0.597,1.442,0.597s1.045-0.198,1.443-0.597c0.793-0.792,0.795-2.072,0.012-2.87l2.25-2.251
		C22.156,6.519,22.5,5.69,22.5,4.806z M20.785,3.936c-0.2,0.199-0.523,0.198-0.723-0.001c-0.463-0.465-1.274-0.465-1.738,0
		l-1.869,1.869c-0.1,0.099-0.23,0.15-0.359,0.15c-0.133,0-0.263-0.051-0.361-0.15c-0.199-0.2-0.199-0.522,0-0.722l1.867-1.867
		c0.85-0.852,2.336-0.852,3.186,0C20.984,3.414,20.984,3.738,20.785,3.936z"/>
	<path fill="#2E74A7" d="M4.765,19.234c0.611,0.611,1.678,0.611,2.29,0l5.759-5.76l-4.586,0.01l-3.462,3.461
		C4.134,17.578,4.134,18.604,4.765,19.234z"/>
	<path fill="#5C5C5C" d="M14.734,12.951L7.75,19.934c-0.621,0.623-1.509,0.887-2.375,0.709c-0.225-0.047-0.458,0.022-0.619,0.187
		c-0.206,0.205-0.485,0.308-0.771,0.313c-0.296-0.004-0.577-0.123-0.791-0.336c-0.21-0.213-0.334-0.509-0.339-0.813
		c-0.006-0.306,0.104-0.587,0.309-0.792c0.16-0.159,0.23-0.389,0.188-0.609c-0.164-0.854,0.104-1.729,0.716-2.342l6.982-6.982
		c0.266-0.266,0.266-0.696,0-0.962c-0.266-0.266-0.696-0.266-0.962,0l-6.982,6.982c-0.854,0.853-1.267,2.04-1.14,3.229
		c-0.701,0.963-0.609,2.375,0.267,3.252c0.465,0.465,1.082,0.727,1.735,0.733c0.01,0,0.021,0,0.032,0
		c0.525,0,1.025-0.164,1.44-0.472c1.202,0.143,2.408-0.268,3.272-1.135l6.983-6.982c0.267-0.266,0.267-0.696,0-0.961
		C15.432,12.686,15,12.686,14.734,12.951z"/>
</g>
</svg>
