<?xml version="1.0" encoding="utf-8"?>
<!-- Generator: Adobe Illustrator 15.0.2, SVG Export Plug-In . SVG Version: 6.00 Build 0)  -->
<!DOCTYPE svg PUBLIC "-//W3C//DTD SVG 1.1//EN" "http://www.w3.org/Graphics/SVG/1.1/DTD/svg11.dtd">
<svg version="1.1" id="Layer_1" xmlns="http://www.w3.org/2000/svg" xmlns:xlink="http://www.w3.org/1999/xlink" x="0px" y="0px"
	 width="24px" height="24px" viewBox="0 0 24 24" enable-background="new 0 0 24 24" xml:space="preserve">
<g>
	<g>
		<path fill="#5C5C5C" d="M21.952,19.55c-0.644,0.873-1.876,1.058-2.749,0.413l-5.118-3.805c-1.877,1.393-4.413,1.808-6.732,0.871
			c-3.549-1.429-5.273-5.479-3.842-9.028C4.202,6.281,5.524,4.935,7.23,4.21c1.704-0.726,3.591-0.743,5.308-0.05
			c1.72,0.691,3.065,2.013,3.79,3.717c0.702,1.647,0.737,3.463,0.114,5.134l5.096,3.788C22.411,17.444,22.597,18.676,21.952,19.55z
			 M14.921,12.599c0.536-1.328,0.522-2.786-0.039-4.105c-0.562-1.318-1.603-2.34-2.933-2.874c-1.327-0.536-2.785-0.522-4.103,0.038
			C6.527,6.218,5.504,7.259,4.969,8.59c-1.105,2.742,0.228,5.875,2.972,6.981C10.684,16.677,13.815,15.344,14.921,12.599z
			 M19.517,16.384l-3.113-2.324c-0.233-0.175-0.564-0.126-0.737,0.108c-0.174,0.233-0.126,0.563,0.108,0.736l3.113,2.325
			c0.233,0.172,0.563,0.124,0.737-0.108C19.799,16.886,19.749,16.558,19.517,16.384z"/>
		<path fill="#5C5C5C" d="M12.334,12.928c-0.625,0.628-1.458,0.974-2.342,0.974c-0.886,0.003-1.718-0.341-2.345-0.967l0,0
			c-0.208-0.209-0.547-0.209-0.756,0.002c-0.208,0.209-0.208,0.548,0.001,0.757l0,0c0.83,0.826,1.931,1.28,3.103,1.278
			c1.17-0.001,2.271-0.458,3.097-1.288l0,0c0.21-0.209,0.207-0.549-0.002-0.756C12.882,12.719,12.543,12.72,12.334,12.928
			L12.334,12.928z"/>
	</g>
	<g>
		<g>
			<polyline fill="none" stroke="#2E74A7" stroke-width="2" stroke-miterlimit="10" points="11.768,16.144 11.768,21.144 
				2.336,21.144 2.336,16.144 			"/>
			<polyline fill="none" stroke="#2E74A7" stroke-width="2" stroke-miterlimit="10" points="2.336,7.856 2.336,2.856 11.768,2.856 
				11.768,7.856 			"/>
		</g>
	</g>
</g>
</svg>
