<?xml version="1.0" encoding="utf-8"?>
<!-- Generator: Adobe Illustrator 15.0.2, SVG Export Plug-In . SVG Version: 6.00 Build 0)  -->
<!DOCTYPE svg PUBLIC "-//W3C//DTD SVG 1.1//EN" "http://www.w3.org/Graphics/SVG/1.1/DTD/svg11.dtd">
<svg version="1.1" id="Layer_1" xmlns="http://www.w3.org/2000/svg" xmlns:xlink="http://www.w3.org/1999/xlink" x="0px" y="0px"
	 width="24px" height="24px" viewBox="0 0 24 24" enable-background="new 0 0 24 24" xml:space="preserve">
<g>
	<g>
		
			<rect x="17.998" y="15.673" transform="matrix(0.6361 -0.7716 0.7716 0.6361 -7.099 21.1184)" fill="#FFFFFF" width="1.687" height="4.825"/>
		<path fill="#5C5C5C" d="M22.656,21.581c-0.576,0.782-1.68,0.946-2.461,0.37l-4.582-3.405c-1.68,1.246-3.949,1.617-6.026,0.78
			c-3.177-1.28-4.72-4.906-3.439-8.083c0.62-1.54,1.803-2.745,3.33-3.394c1.525-0.649,3.213-0.665,4.75-0.044
			c1.539,0.619,2.744,1.801,3.395,3.328c0.628,1.475,0.659,3.1,0.102,4.596l4.563,3.393C23.066,19.697,23.232,20.799,22.656,21.581z
			 M16.361,15.359c0.479-1.189,0.469-2.496-0.034-3.676c-0.503-1.181-1.435-2.094-2.625-2.573c-1.188-0.479-2.494-0.467-3.674,0.035
			c-1.181,0.502-2.096,1.434-2.575,2.625c-0.989,2.457,0.204,5.259,2.661,6.25C12.568,19.009,15.373,17.816,16.361,15.359z
			 M20.477,18.747l-2.787-2.081c-0.209-0.156-0.506-0.111-0.66,0.098c-0.153,0.209-0.11,0.506,0.1,0.659l2.785,2.081
			c0.209,0.154,0.506,0.111,0.661-0.098C20.729,19.197,20.686,18.902,20.477,18.747z"/>
		<path fill="#5C5C5C" d="M14.047,15.652c-0.561,0.563-1.305,0.873-2.097,0.873c-0.792,0.002-1.538-0.305-2.099-0.865l0,0
			c-0.186-0.188-0.489-0.188-0.677,0.001c-0.187,0.188-0.186,0.491,0.001,0.677l0,0c0.743,0.74,1.728,1.146,2.778,1.146
			c1.047-0.002,2.033-0.41,2.773-1.153l0,0c0.187-0.187,0.185-0.491-0.002-0.677C14.537,15.467,14.232,15.467,14.047,15.652
			L14.047,15.652z"/>
	</g>
	<path fill="#2E74A7" d="M7.897,4.645H5.975V2.722c0-0.562-0.455-1.017-1.017-1.017S3.94,2.16,3.94,2.722v1.923H2.017
		C1.455,4.645,1,5.1,1,5.662c0,0.563,0.455,1.017,1.017,1.017H3.94v1.923c0,0.562,0.455,1.017,1.017,1.017s1.017-0.455,1.017-1.017
		V6.679h1.923c0.563,0,1.018-0.455,1.018-1.017C8.916,5.1,8.46,4.645,7.897,4.645z"/>
	<path fill="#2E74A7" d="M7.897,20.002h-5.88C1.455,20.002,1,20.456,1,21.02s0.454,1.019,1.017,1.019h5.88
		c0.563,0,1.018-0.455,1.018-1.019S8.46,20.002,7.897,20.002z"/>
</g>
</svg>
