<?xml version="1.0" encoding="utf-8"?>
<!-- Generator: Adobe Illustrator 15.0.2, SVG Export Plug-In . SVG Version: 6.00 Build 0)  -->
<!DOCTYPE svg PUBLIC "-//W3C//DTD SVG 1.1//EN" "http://www.w3.org/Graphics/SVG/1.1/DTD/svg11.dtd">
<svg version="1.1" id="Layer_1" xmlns="http://www.w3.org/2000/svg" xmlns:xlink="http://www.w3.org/1999/xlink" x="0px" y="0px"
	 width="24px" height="24px" viewBox="0 0 24 24" enable-background="new 0 0 24 24" xml:space="preserve">
<path fill="#2E74A7" d="M1.183,14.649c0.016-0.021,0.031-0.039,0.048-0.057l6.852-6.891C8.243,7.542,8.463,7.45,8.69,7.45
	c0.475,0,0.861,0.386,0.861,0.859L9.549,9.915v0.692c-1.658,1.669-3.271,3.292-3.281,3.301l-0.135,0.165
	c-0.238,0.34-0.365,0.736-0.365,1.152c0,0.414,0.127,0.812,0.363,1.147c0,0,0.143,0.176,0.156,0.188l3.27,3.283l0.004,0.691v1.604
	h0.002C9.563,22.615,9.176,23,8.702,23c-0.23,0-0.445-0.089-0.607-0.251L1.23,15.856c-0.017-0.018-0.032-0.035-0.048-0.056
	C1.063,15.631,1,15.432,1,15.226C1,15.019,1.063,14.82,1.183,14.649z"/>
<g>
	<path fill="#5C5C5C" d="M21.436,1H4.564C3.701,1,3,1.701,3,2.564v8.122l1.333-1.341V3.666c0-0.736,0.597-1.333,1.333-1.333h14.667
		c0.734,0,1.332,0.597,1.332,1.333v14.668c0,0.734-0.598,1.332-1.332,1.332h-9.279L11.058,21h10.377C22.299,21,23,20.299,23,19.436
		V2.564C23,1.701,22.299,1,21.436,1z"/>
	<path fill="#FFFFFF" d="M7.35,14.955l-0.009,0.011c-0.049,0.081-0.073,0.166-0.073,0.26c0,0.091,0.023,0.176,0.07,0.253
		l0.043,0.053c0.032-0.084,0.049-0.175,0.049-0.27C7.43,15.148,7.396,15.048,7.35,14.955z"/>
	<path fill="#FFFFFF" d="M8.61,5.958C9.664,4.189,11.59,3,13.799,3c3.338,0,6.043,2.705,6.043,6.041c0,1.34-0.531,2.955-1.291,3.941
		c-0.691,0.896-0.984,1.66-0.984,2.883c0,1.006,0.275,1.951,0.762,2.754c0.025,0.039,0.041,0.086,0.041,0.137
		c0,0.135-0.107,0.244-0.242,0.244h-5.601c-0.177,0-0.229-0.166-0.243-0.244c-0.108-0.551-0.355-1.051-0.711-1.457
		c-0.203-0.248-0.589-0.432-1.03-0.406c-0.021,0.002-0.045,0-0.067,0.002c0,0-1.435,0.066-1.663,0.076l2.243,2.251l0.001,0.444
		h9.279c0.734,0,1.332-0.598,1.332-1.332V3.666c0-0.736-0.598-1.333-1.332-1.333H5.667c-0.736,0-1.333,0.597-1.333,1.333v5.679
		l2.686-2.701C7.442,6.221,8.018,5.979,8.61,5.958z"/>
	<path fill="#5C5C5C" d="M10.542,16.893c0.441-0.025,0.827,0.158,1.03,0.406c0.355,0.406,0.603,0.906,0.711,1.457
		C12.297,18.834,12.349,19,12.526,19h5.601c0.135,0,0.242-0.109,0.242-0.244c0-0.051-0.016-0.098-0.041-0.137
		c-0.486-0.803-0.762-1.748-0.762-2.754c0-1.223,0.293-1.986,0.984-2.883c0.76-0.986,1.291-2.602,1.291-3.941
		C19.842,5.705,17.137,3,13.799,3C11.59,3,9.664,4.189,8.61,5.958C8.637,5.957,8.663,5.95,8.69,5.95c0.292,0,0.569,0.06,0.827,0.157
		c0.205-0.553,0.776-1.381,1.828-1.381c0.012,0,0.024,0,0.036,0c0.21-0.252,0.68-0.688,1.415-0.688c0.243,0,0.495,0.049,0.749,0.145
		c0.184-0.096,0.5-0.225,0.891-0.225c0.398,0,0.77,0.133,1.109,0.393c0.084-0.014,0.193-0.023,0.32-0.023
		c0.434,0,1.207,0.129,1.662,0.961c0.615,0.232,1.479,0.918,1.217,2.205c0.145,0.203,0.365,0.598,0.338,1.068
		c-0.021,0.348-0.17,0.666-0.443,0.947c0.031,0.223,0.035,0.586-0.156,0.945c-0.197,0.365-0.541,0.629-1.025,0.779
		c-0.162,0.115-0.869,0.658-0.9,1.416l-0.014,0.322h-2.191l-0.025-1.93l0.002-0.016c0.039-0.449-0.27-0.85-0.389-0.984
		c-0.438-0.156-0.707-0.346-0.871-0.504c-0.305,0.172-0.602,0.26-0.888,0.26c-0.365,0-0.652-0.146-0.844-0.305
		c-0.077,0.04-0.182,0.079-0.286,0.116l-0.001,1.616l-0.436,0.438c-2.322,2.337-3.01,3.029-3.229,3.248L7.35,14.955
		c0.047,0.093,0.081,0.193,0.081,0.307c0,0.095-0.018,0.186-0.049,0.27L7.4,15.555l1.411,1.416c0.228-0.01,1.663-0.076,1.663-0.076
		C10.497,16.893,10.52,16.895,10.542,16.893z"/>
	<path fill="#9D9D9D" d="M11.471,8.58l0.2,0.305c0.005,0.006,0.177,0.244,0.509,0.244c0.226,0,0.484-0.104,0.767-0.311l0.391-0.283
		l0.119,0.434c0.002,0,0.152,0.258,0.777,0.467l0.072,0.023l0.055,0.053c0.029,0.027,0.701,0.689,0.635,1.557l0.018,1.234h0.914
		c0.211-1.018,1.16-1.629,1.205-1.658l0.039-0.025l0.047-0.014c0.33-0.096,0.557-0.252,0.672-0.467
		c0.16-0.301,0.064-0.643,0.063-0.646l-0.066-0.211l0.17-0.145c0.227-0.193,0.344-0.393,0.357-0.615
		c0.021-0.385-0.275-0.717-0.279-0.721L18.01,7.664l0.047-0.178c0.328-1.215-0.736-1.564-0.859-1.6l-0.145-0.043l-0.066-0.139
		c-0.217-0.469-0.596-0.707-1.121-0.707c-0.191,0-0.328,0.035-0.328,0.035l-0.172,0.043L15.23,4.959
		c-0.246-0.219-0.514-0.328-0.795-0.328c-0.381,0-0.664,0.197-0.666,0.199l-0.16,0.115l-0.178-0.082
		c-0.223-0.104-0.437-0.154-0.636-0.154c-0.636,0-0.964,0.531-0.967,0.537l-0.111,0.182l-0.213-0.023
		c-1.062-0.117-1.386,1.014-1.392,1.035c0.566,0.432,0.938,1.105,0.938,1.87l0,0.575c0.077-0.042,0.133-0.079,0.134-0.08
		L11.471,8.58z"/>
	<path fill="#FFFFFF" d="M12.181,9.799c0.286,0,0.583-0.088,0.888-0.26c0.164,0.158,0.434,0.348,0.871,0.504
		c0.119,0.135,0.428,0.535,0.389,0.984l-0.002,0.016l0.025,1.93h2.191l0.014-0.322c0.031-0.758,0.738-1.301,0.9-1.416
		c0.484-0.15,0.828-0.414,1.025-0.779c0.191-0.359,0.188-0.723,0.156-0.945c0.273-0.281,0.422-0.6,0.443-0.947
		c0.027-0.471-0.193-0.865-0.338-1.068c0.262-1.287-0.602-1.973-1.217-2.205c-0.455-0.832-1.229-0.961-1.662-0.961
		c-0.127,0-0.236,0.01-0.32,0.023c-0.34-0.26-0.711-0.393-1.109-0.393c-0.391,0-0.707,0.129-0.891,0.225
		c-0.254-0.096-0.506-0.145-0.749-0.145c-0.734,0-1.205,0.436-1.415,0.688c-0.012,0-0.024,0-0.036,0
		c-1.052,0-1.624,0.828-1.828,1.381c0.217,0.082,0.416,0.194,0.596,0.332c0.006-0.021,0.33-1.152,1.392-1.035l0.213,0.023
		l0.111-0.182c0.003-0.006,0.331-0.537,0.967-0.537c0.199,0,0.413,0.051,0.636,0.154l0.178,0.082l0.16-0.115
		c0.002-0.002,0.285-0.199,0.666-0.199c0.281,0,0.549,0.109,0.795,0.328l0.135,0.117l0.172-0.043c0,0,0.137-0.035,0.328-0.035
		c0.525,0,0.904,0.238,1.121,0.707l0.066,0.139l0.145,0.043c0.123,0.035,1.188,0.385,0.859,1.6L18.01,7.664l0.125,0.137
		c0.004,0.004,0.301,0.336,0.279,0.721c-0.014,0.223-0.131,0.422-0.357,0.615l-0.17,0.145l0.066,0.211
		c0.002,0.004,0.098,0.346-0.063,0.646c-0.115,0.215-0.342,0.371-0.672,0.467l-0.047,0.014l-0.039,0.025
		c-0.045,0.029-0.994,0.641-1.205,1.658h-0.914l-0.018-1.234c0.066-0.867-0.605-1.529-0.635-1.557l-0.055-0.053l-0.072-0.023
		c-0.625-0.209-0.775-0.467-0.777-0.467l-0.119-0.434l-0.391,0.283c-0.283,0.207-0.541,0.311-0.767,0.311
		c-0.333,0-0.504-0.238-0.509-0.244l-0.2-0.305l-0.287,0.225c-0.001,0.001-0.057,0.038-0.134,0.08l0,0.725
		c0.104-0.037,0.209-0.076,0.286-0.116C11.529,9.652,11.816,9.799,12.181,9.799z"/>
</g>
</svg>
