<?xml version="1.0" encoding="utf-8"?>
<!-- Generator: Adobe Illustrator 15.0.2, SVG Export Plug-In . SVG Version: 6.00 Build 0)  -->
<!DOCTYPE svg PUBLIC "-//W3C//DTD SVG 1.1//EN" "http://www.w3.org/Graphics/SVG/1.1/DTD/svg11.dtd">
<svg version="1.1" id="Layer_1" xmlns="http://www.w3.org/2000/svg" xmlns:xlink="http://www.w3.org/1999/xlink" x="0px" y="0px"
	 width="24px" height="24px" viewBox="0 0 24 24" enable-background="new 0 0 24 24" xml:space="preserve">
<g>
	<path fill="#2E74A7" d="M1.679,14.869c0.015-0.021,0.028-0.039,0.046-0.057l6.674-6.71c0.153-0.156,0.37-0.245,0.592-0.245
		c0.461,0,0.838,0.375,0.838,0.837l-0.002,1.563v0.674c-1.614,1.625-3.187,3.205-3.193,3.214L6.5,14.307
		c-0.232,0.331-0.355,0.717-0.355,1.121s0.123,0.791,0.354,1.117c0,0,0.141,0.172,0.152,0.186l3.184,3.197L9.838,20.6v1.563H9.84
		C9.84,22.625,9.463,23,9.003,23c-0.228,0-0.437-0.086-0.595-0.244l-6.684-6.713c-0.018-0.017-0.031-0.033-0.046-0.053
		C1.563,15.824,1.5,15.631,1.5,15.428C1.5,15.228,1.563,15.033,1.679,14.869z"/>
	<g>
		<path fill="none" d="M7.704,15.65c-0.039-0.066-0.06-0.142-0.06-0.223c0-0.082,0.021-0.156,0.062-0.227l0.042-0.051
			c0.124-0.125,0.513-0.517,1.035-1.042v2.63L7.704,15.65z"/>
		<path fill="#5C5C5C" d="M11.33,19.305L11.336,21h8.859c1.273,0,2.305-1.031,2.305-2.305V3.305C22.5,2.032,21.469,1,20.195,1
			h-9.106C9.815,1,8.783,2.032,8.783,3.305v3.073C8.853,6.372,8.92,6.357,8.99,6.357c1.092,0,2.005,0.756,2.26,1.771h0.126v1.883
			h-0.049l-0.001,1.539l-0.341,0.343h0.391v1.884H9.494v-0.385l-0.579,0.583c-0.047,0.048-0.087,0.087-0.132,0.133v2.63l0.711,0.716
			v-1.698h1.882v1.883H9.677L11.33,19.305z M11.376,6.245H9.494V4.363h1.882V6.245z M12.559,5.253h6.167V9.02h-6.167V5.253z
			 M12.559,12.9h6.166v3.764h-6.166V12.9z M20.176,15.707h1.883v1.881h-1.883V15.707z M20.176,11.843h1.883v1.881h-1.883V11.843z
			 M20.176,8.078h1.883V9.96h-1.883V8.078z M20.176,4.312h1.883v1.883h-1.883V4.312z"/>
		<rect x="20.176" y="4.312" fill="#FFFFFF" width="1.883" height="1.883"/>
		<rect x="20.176" y="8.078" fill="#FFFFFF" width="1.883" height="1.883"/>
		<rect x="20.176" y="11.843" fill="#FFFFFF" width="1.883" height="1.881"/>
		<rect x="20.176" y="15.707" fill="#FFFFFF" width="1.883" height="1.881"/>
		<rect x="9.494" y="4.363" fill="#FFFFFF" width="1.882" height="1.882"/>
		<path fill="#FFFFFF" d="M11.376,10.011h-0.049l0.001-1.315c0-0.197-0.032-0.385-0.078-0.568h0.126V10.011z"/>
		<polygon fill="#FFFFFF" points="11.376,13.777 9.494,13.777 9.494,13.393 10.985,11.893 11.376,11.893 		"/>
		<polygon fill="#FFFFFF" points="11.376,15.756 11.376,17.639 9.677,17.639 9.494,17.454 9.494,15.756 		"/>
		<rect x="12.559" y="5.253" fill="#FFFFFF" width="6.167" height="3.766"/>
		<rect x="12.559" y="12.9" fill="#FFFFFF" width="6.166" height="3.764"/>
	</g>
</g>
</svg>
