<?xml version="1.0" encoding="utf-8"?>
<!-- Generator: Adobe Illustrator 15.0.2, SVG Export Plug-In . SVG Version: 6.00 Build 0)  -->
<!DOCTYPE svg PUBLIC "-//W3C//DTD SVG 1.1//EN" "http://www.w3.org/Graphics/SVG/1.1/DTD/svg11.dtd">
<svg version="1.1" id="Layer_1" xmlns="http://www.w3.org/2000/svg" xmlns:xlink="http://www.w3.org/1999/xlink" x="0px" y="0px"
	 width="32px" height="32px" viewBox="0 0 32 32" enable-background="new 0 0 32 32" xml:space="preserve">
<g>
	<g>
		<path fill="#6EBCEB" d="M14.638,5.786c-0.003,0-0.007,0-0.011,0c-4.526,0.416-8.145,4.001-8.604,8.523
			c-0.002,0.022,0.007,0.043,0.006,0.066H4.201l3.05,3.541l3.051-3.541H8.186c0.422-3.427,3.187-6.127,6.637-6.446
			c0.288-0.027,0.547-0.164,0.731-0.386c0.183-0.221,0.269-0.5,0.242-0.785C15.744,6.204,15.289,5.786,14.638,5.786z"/>
		<g>
			<path fill="#2E74A7" d="M6,24.11v-0.898h2.742v0.898H6z"/>
			<path fill="#2E74A7" d="M9.684,24.4l0.966-0.089c0.081,0.454,0.237,0.783,0.468,0.987c0.231,0.205,0.526,0.307,0.887,0.307
				c0.311,0,0.579-0.07,0.813-0.211c0.231-0.142,0.422-0.331,0.572-0.566c0.147-0.236,0.273-0.555,0.373-0.957
				s0.15-0.811,0.15-1.228c0-0.044-0.002-0.11-0.005-0.2c-0.202,0.318-0.476,0.579-0.823,0.777c-0.348,0.2-0.725,0.299-1.13,0.299
				c-0.677,0-1.249-0.244-1.718-0.736c-0.469-0.491-0.703-1.138-0.703-1.94c0-0.831,0.244-1.498,0.732-2.004
				c0.49-0.505,1.103-0.758,1.84-0.758c0.531,0,1.018,0.144,1.459,0.429c0.439,0.287,0.774,0.695,1.004,1.224
				c0.229,0.531,0.342,1.298,0.342,2.302c0,1.047-0.113,1.878-0.34,2.497c-0.227,0.62-0.564,1.091-1.013,1.414
				c-0.448,0.324-0.973,0.484-1.575,0.484c-0.641,0-1.162-0.177-1.567-0.531C10.01,25.544,9.766,25.045,9.684,24.4z M13.795,20.792
				c0-0.577-0.152-1.035-0.461-1.372c-0.306-0.339-0.675-0.509-1.106-0.509c-0.446,0-0.835,0.185-1.166,0.548
				c-0.331,0.364-0.497,0.836-0.497,1.416c0,0.52,0.158,0.944,0.472,1.27c0.314,0.325,0.702,0.488,1.163,0.488
				c0.465,0,0.848-0.163,1.146-0.488S13.795,21.368,13.795,20.792z"/>
			<path fill="#2E74A7" d="M15.887,22.258c0-0.967,0.1-1.744,0.299-2.333c0.199-0.59,0.495-1.044,0.887-1.364
				c0.393-0.319,0.886-0.479,1.481-0.479c0.438,0,0.822,0.089,1.155,0.265c0.329,0.176,0.604,0.432,0.819,0.764
				c0.215,0.334,0.386,0.739,0.507,1.217c0.123,0.479,0.184,1.121,0.184,1.932c0,0.96-0.098,1.735-0.295,2.324
				c-0.196,0.59-0.492,1.045-0.885,1.366c-0.392,0.323-0.888,0.482-1.485,0.482c-0.789,0-1.408-0.281-1.858-0.848
				C16.156,24.903,15.887,23.795,15.887,22.258z M16.919,22.258c0,1.344,0.156,2.236,0.472,2.683
				c0.313,0.442,0.701,0.665,1.163,0.665c0.46,0,0.848-0.224,1.162-0.669c0.314-0.447,0.471-1.34,0.471-2.679
				c0-1.346-0.156-2.239-0.471-2.683c-0.314-0.442-0.705-0.664-1.174-0.664c-0.461,0-0.829,0.196-1.104,0.587
				C17.092,19.996,16.919,20.917,16.919,22.258z"/>
			<path fill="#2E74A7" d="M22.56,18.768c0-0.477,0.168-0.88,0.507-1.215c0.335-0.336,0.739-0.502,1.21-0.502
				c0.479,0,0.887,0.166,1.221,0.502C25.832,17.888,26,18.291,26,18.768c0,0.476-0.17,0.881-0.506,1.217
				c-0.336,0.338-0.742,0.506-1.218,0.506c-0.471,0-0.875-0.167-1.21-0.502C22.728,19.653,22.56,19.245,22.56,18.768z
				 M23.234,18.768c0,0.291,0.104,0.535,0.307,0.742c0.206,0.202,0.453,0.305,0.741,0.305c0.286,0,0.531-0.103,0.734-0.305
				c0.206-0.207,0.307-0.451,0.307-0.742c0-0.29-0.101-0.536-0.307-0.741c-0.203-0.204-0.448-0.306-0.734-0.306
				c-0.288,0-0.535,0.102-0.741,0.306C23.338,18.231,23.234,18.478,23.234,18.768z"/>
		</g>
	</g>
	<g>
		<path fill="#2E74A7" d="M12.695,3.408c0.51-0.124,1.119-0.249,1.072-0.905s-0.688-0.719-1.072-0.637c0,0-0.051,0.012-0.077,0.018
			C7.041,3.166,2.658,7.552,1.38,13.13c-0.005,0.022,0.003,0-0.015,0.066c-0.098,0.37-0.066,1.01,0.512,1.057
			s0.877-0.474,0.969-0.859c0.014-0.053,0.078-0.263,0.087-0.296c1.228-4.735,4.952-8.453,9.69-9.67
			C12.646,3.421,12.695,3.408,12.695,3.408z"/>
		<path fill="#5C5C5C" d="M29.112,13.311c0.124,0.51,0.249,1.119,0.905,1.072s0.719-0.688,0.638-1.072c0,0-0.012-0.052-0.018-0.078
			c-1.282-5.577-5.669-9.96-11.247-11.238C19.368,1.99,19.39,1.997,19.325,1.98c-0.37-0.097-1.011-0.066-1.058,0.512
			s0.474,0.876,0.859,0.969c0.054,0.013,0.263,0.078,0.296,0.086c4.734,1.228,8.453,4.952,9.671,9.69
			C29.1,13.262,29.112,13.311,29.112,13.311z"/>
		<path fill="#5C5C5C" d="M19.302,29.591c-0.51,0.125-1.119,0.25-1.072,0.906s0.688,0.719,1.072,0.637c0,0,0.052-0.012,0.078-0.018
			c5.576-1.282,9.96-5.668,11.238-11.246c0.004-0.022-0.003-0.001,0.014-0.066c0.098-0.369,0.066-1.01-0.512-1.057
			s-0.876,0.474-0.969,0.859c-0.013,0.053-0.078,0.263-0.086,0.295c-1.229,4.735-4.952,8.453-9.69,9.671
			C19.351,29.579,19.302,29.591,19.302,29.591z"/>
		<path fill="#5C5C5C" d="M2.888,19.739c-0.124-0.51-0.249-1.119-0.905-1.072s-0.719,0.688-0.637,1.072c0,0,0.012,0.053,0.018,0.078
			c1.281,5.577,5.668,9.961,11.246,11.238c0.021,0.006,0-0.002,0.066,0.016c0.369,0.096,1.01,0.064,1.057-0.514
			s-0.475-0.875-0.859-0.969c-0.053-0.012-0.264-0.078-0.296-0.086c-4.735-1.228-8.452-4.951-9.671-9.689
			C2.9,19.788,2.888,19.739,2.888,19.739z"/>
	</g>
</g>
</svg>
