<?xml version="1.0" encoding="utf-8"?>
<!-- Generator: Adobe Illustrator 15.0.2, SVG Export Plug-In . SVG Version: 6.00 Build 0)  -->
<!DOCTYPE svg PUBLIC "-//W3C//DTD SVG 1.1//EN" "http://www.w3.org/Graphics/SVG/1.1/DTD/svg11.dtd">
<svg version="1.1"
	 id="svg3779" xmlns:dc="http://purl.org/dc/elements/1.1/" xmlns:rdf="http://www.w3.org/1999/02/22-rdf-syntax-ns#" xmlns:cc="http://creativecommons.org/ns#" xmlns:svg="http://www.w3.org/2000/svg"
	 xmlns="http://www.w3.org/2000/svg" xmlns:xlink="http://www.w3.org/1999/xlink" x="0px" y="0px" width="32px" height="32px"
	 viewBox="0 0 32 32" enable-background="new 0 0 32 32" xml:space="preserve">
<g>
	<path fill="#2E74A7" d="M26,8c0,1.104-0.896,2-2,2H8c-1.104,0-2-0.896-2-2l0,0c0-1.104,0.896-2,2-2h16C25.104,6,26,6.896,26,8L26,8
		z"/>
	<path fill="#2E74A7" d="M26,16c0,1.104-0.896,2-2,2H8c-1.104,0-2-0.896-2-2l0,0c0-1.104,0.896-2,2-2h16C25.104,14,26,14.896,26,16
		L26,16z"/>
	<path fill="#2E74A7" d="M26,24c0,1.104-0.896,2-2,2H8c-1.104,0-2-0.896-2-2l0,0c0-1.104,0.896-2,2-2h16C25.104,22,26,22.896,26,24
		L26,24z"/>
</g>
</svg>
