<?xml version="1.0" encoding="utf-8"?>
<!-- Generator: Adobe Illustrator 15.0.2, SVG Export Plug-In . SVG Version: 6.00 Build 0)  -->
<!DOCTYPE svg PUBLIC "-//W3C//DTD SVG 1.1//EN" "http://www.w3.org/Graphics/SVG/1.1/DTD/svg11.dtd">
<svg version="1.1" id="Layer_1" xmlns="http://www.w3.org/2000/svg" xmlns:xlink="http://www.w3.org/1999/xlink" x="0px" y="0px"
	 width="24px" height="24px" viewBox="0 0 24 24" enable-background="new 0 0 24 24" xml:space="preserve">
<g>
	<path fill="#5C5C5C" d="M3.667,19.667c-0.736,0-1.333-0.598-1.333-1.333V3.667c0-0.736,0.597-1.334,1.333-1.334h14.667
		c0.734,0,1.332,0.598,1.332,1.334v6.077L21,11.091V2.564C21,1.701,20.299,1,19.436,1H2.564C1.701,1,1,1.701,1,2.564v16.871
		C1,20.3,1.701,21,2.564,21H13.35l0.005-1.333H3.667z"/>
	<path fill="#FFFFFF" d="M15.702,17.016l1.188-1.193c0.047-0.068,0.07-0.145,0.07-0.227c0-0.085-0.023-0.159-0.072-0.228
		l-1.08-1.087c-0.165,0.462-0.242,0.963-0.242,1.583C15.566,16.261,15.621,16.644,15.702,17.016z"/>
	<path fill="#FFFFFF" d="M18.334,2.333H3.667c-0.736,0-1.333,0.598-1.333,1.334v14.667c0,0.735,0.597,1.333,1.333,1.333h9.688
		l0.001-0.294L13.727,19h-3.201c-0.177,0-0.229-0.167-0.243-0.243c-0.108-0.553-0.355-1.051-0.711-1.457v-0.002
		c-0.203-0.248-0.589-0.432-1.03-0.405c-0.021,0.002-0.045,0.001-0.067,0.002c0,0-1.683,0.077-1.709,0.077
		c-0.267,0-0.535-0.005-0.774-0.096c-0.358-0.137-0.7-0.509-0.7-0.916c0-0.123,0.049-0.319,0.09-0.426
		c0.032-0.085,0.05-0.176,0.05-0.271c0-0.285-0.175-0.504-0.387-0.664c-0.091-0.068-0.148-0.18-0.148-0.303
		c0-0.169,0.241-0.313,0.396-0.359c-0.154-0.047-0.396-0.191-0.396-0.36c0-0.099,0.041-0.185,0.1-0.256
		c0.063-0.074,0.142-0.213,0.142-0.317c0-0.167-0.1-0.303-0.232-0.384c0.019,0.013-0.505-0.251-0.505-0.251
		c-0.142-0.071-0.24-0.218-0.24-0.387c0-0.088,0.025-0.167,0.068-0.234l1.402-1.791c0.084-0.111,0.142-0.27,0.142-0.441
		c0-0.156-0.013-0.313-0.013-0.473C5.757,5.705,8.462,3,11.799,3c2.898,0,5.316,2.041,5.904,4.762l1.963,1.982V3.667
		C19.666,2.931,19.068,2.333,18.334,2.333z"/>
	<path fill="#5C5C5C" d="M11.799,3C8.462,3,5.757,5.705,5.757,9.042c0,0.159,0.013,0.316,0.013,0.473
		c0,0.172-0.058,0.33-0.142,0.441l-1.402,1.791c-0.043,0.067-0.068,0.146-0.068,0.234c0,0.169,0.098,0.315,0.24,0.387
		c0,0,0.524,0.264,0.505,0.251c0.132,0.081,0.232,0.217,0.232,0.384c0,0.104-0.079,0.243-0.142,0.317
		c-0.059,0.071-0.1,0.157-0.1,0.256c0,0.169,0.241,0.313,0.396,0.36c-0.154,0.047-0.396,0.19-0.396,0.359
		c0,0.123,0.058,0.234,0.148,0.303c0.212,0.16,0.387,0.379,0.387,0.664c0,0.096-0.018,0.187-0.05,0.271
		c-0.041,0.106-0.09,0.303-0.09,0.426c0,0.407,0.341,0.779,0.7,0.916c0.239,0.091,0.508,0.096,0.774,0.096
		c0.026,0,1.709-0.077,1.709-0.077c0.022-0.001,0.046,0,0.067-0.002c0.441-0.026,0.827,0.157,1.03,0.405V17.3
		c0.355,0.406,0.603,0.904,0.711,1.457C10.297,18.833,10.349,19,10.526,19h3.201l1.976-1.984c-0.081-0.372-0.136-0.755-0.136-1.151
		c0-0.62,0.077-1.121,0.242-1.583l-1.301-1.309h-2.156l-0.025-1.929l0.001-0.018c0.04-0.449-0.269-0.849-0.388-0.984
		c-0.438-0.156-0.708-0.344-0.871-0.504C10.764,9.712,10.466,9.8,10.181,9.8c-0.365,0-0.652-0.146-0.844-0.305
		C9.127,9.604,8.808,9.727,8.435,9.727c-0.45,0-1.106-0.183-1.674-1.052L6.742,8.642C6.726,8.61,6.358,7.86,6.624,7.102
		c0.145-0.415,0.444-0.746,0.89-0.983c0.201-0.553,0.774-1.393,1.832-1.393c0.012,0,0.024,0,0.036,0
		c0.21-0.251,0.68-0.688,1.415-0.688c0.243,0,0.495,0.049,0.749,0.146c0.184-0.097,0.5-0.225,0.89-0.225
		c0.398,0,0.77,0.132,1.11,0.391c0.084-0.012,0.193-0.021,0.32-0.021c0.434,0,1.207,0.128,1.662,0.961
		c0.528,0.2,1.235,0.736,1.26,1.698c0.196,0.107,0.382,0.233,0.539,0.394l0.377,0.38C17.115,5.041,14.697,3,11.799,3z"/>
	<path fill="#9D9D9D" d="M15.197,5.886l-0.145-0.043l-0.066-0.138c-0.217-0.469-0.596-0.706-1.121-0.706
		c-0.191,0-0.328,0.034-0.328,0.034l-0.172,0.044L13.23,4.96c-0.247-0.219-0.514-0.33-0.795-0.33c-0.381,0-0.664,0.198-0.666,0.2
		L11.61,4.945l-0.178-0.082c-0.223-0.103-0.437-0.155-0.636-0.155c-0.636,0-0.964,0.531-0.967,0.537L9.718,5.429L9.505,5.405
		C8.439,5.288,8.116,6.431,8.113,6.441L8.072,6.593L7.93,6.658C7.582,6.819,7.356,7.042,7.257,7.319
		C7.101,7.761,7.294,8.237,7.334,8.327c0.321,0.484,0.692,0.729,1.101,0.729c0.418,0,0.746-0.248,0.75-0.25L9.471,8.58l0.2,0.304
		c0.005,0.007,0.177,0.245,0.509,0.245c0.226,0,0.484-0.104,0.767-0.31l0.391-0.284l0.119,0.434c0.002,0,0.153,0.258,0.777,0.466
		l0.072,0.024l0.055,0.052c0.029,0.029,0.702,0.689,0.636,1.557l0.017,1.235h0.829l-0.483-0.486l-0.002-2.804
		c0-1.281,1.04-2.321,2.318-2.321c0.136,0,0.271,0.017,0.402,0.041C15.913,6.117,15.29,5.913,15.197,5.886z"/>
	<path fill="#FFFFFF" d="M15.527,5.29c-0.455-0.833-1.229-0.961-1.662-0.961c-0.127,0-0.236,0.01-0.32,0.021
		c-0.34-0.259-0.711-0.391-1.11-0.391c-0.39,0-0.706,0.128-0.89,0.225c-0.254-0.098-0.506-0.146-0.749-0.146
		c-0.734,0-1.205,0.437-1.415,0.688c-0.012,0-0.024,0-0.036,0c-1.058,0-1.631,0.84-1.832,1.393c-0.445,0.237-0.745,0.568-0.89,0.983
		C6.358,7.86,6.726,8.61,6.742,8.642l0.019,0.033c0.568,0.869,1.224,1.052,1.674,1.052c0.373,0,0.692-0.123,0.901-0.231
		C9.529,9.653,9.816,9.8,10.181,9.8c0.286,0,0.583-0.088,0.888-0.262c0.164,0.16,0.434,0.348,0.871,0.504
		c0.119,0.136,0.428,0.535,0.388,0.984l-0.001,0.018l0.025,1.929h2.156l-0.665-0.67h-0.829l-0.017-1.235
		c0.066-0.867-0.606-1.527-0.636-1.557l-0.055-0.052l-0.072-0.024c-0.625-0.208-0.775-0.466-0.777-0.466l-0.119-0.434l-0.391,0.284
		c-0.283,0.206-0.541,0.31-0.767,0.31c-0.333,0-0.504-0.238-0.509-0.245l-0.2-0.304L9.185,8.806c-0.003,0.002-0.331,0.25-0.75,0.25
		c-0.409,0-0.779-0.244-1.101-0.729c-0.04-0.09-0.233-0.566-0.077-1.008c0.099-0.277,0.325-0.5,0.673-0.661l0.142-0.065l0.041-0.151
		c0.003-0.011,0.326-1.153,1.392-1.036l0.213,0.023l0.111-0.184c0.003-0.006,0.331-0.537,0.967-0.537
		c0.199,0,0.413,0.053,0.636,0.155l0.178,0.082l0.159-0.115c0.002-0.002,0.285-0.2,0.666-0.2c0.281,0,0.549,0.111,0.795,0.33
		l0.135,0.117l0.172-0.044c0,0,0.137-0.034,0.328-0.034c0.525,0,0.904,0.237,1.121,0.706l0.066,0.138l0.145,0.043
		c0.093,0.027,0.716,0.231,0.881,0.847c0.251,0.044,0.487,0.134,0.709,0.255C16.763,6.026,16.056,5.49,15.527,5.29z"/>
</g>
<path fill="#2E74A7" d="M22.826,15.047c-0.015-0.02-0.031-0.036-0.047-0.053l-6.525-6.563c-0.149-0.153-0.361-0.239-0.578-0.239
	c-0.451,0-0.818,0.367-0.818,0.819l0.002,1.528v0.659c1.579,1.589,3.115,3.134,3.124,3.144l0.127,0.156
	c0.229,0.322,0.351,0.701,0.351,1.098c0,0.395-0.121,0.773-0.346,1.093c0,0-0.137,0.168-0.15,0.181l-3.113,3.127l-0.004,0.658v1.527
	h-0.002c0,0.451,0.367,0.818,0.816,0.818c0.221,0,0.426-0.086,0.58-0.239l6.536-6.563c0.017-0.018,0.032-0.033,0.046-0.054
	C22.938,15.982,23,15.791,23,15.596C23,15.398,22.938,15.209,22.826,15.047z"/>
</svg>
