<?xml version="1.0" encoding="utf-8"?>
<!-- Generator: Adobe Illustrator 15.0.2, SVG Export Plug-In . SVG Version: 6.00 Build 0)  -->
<!DOCTYPE svg PUBLIC "-//W3C//DTD SVG 1.1//EN" "http://www.w3.org/Graphics/SVG/1.1/DTD/svg11.dtd">
<svg version="1.1" id="Layer_1" xmlns="http://www.w3.org/2000/svg" xmlns:xlink="http://www.w3.org/1999/xlink" x="0px" y="0px"
	 width="32px" height="32px" viewBox="0 0 32 32" enable-background="new 0 0 32 32" xml:space="preserve">
<g>
	<polygon fill="#6EBCEB" points="31.49,5.001 20.572,5.001 11.426,5.001 0.51,5.001 0.51,7.001 10.965,7.001 21.034,7.001 
		31.49,7.001 	"/>
	<polygon fill="#6EBCEB" points="31.491,24.749 27.234,24.749 4.897,24.749 0.509,24.749 0.509,26.749 3.414,26.749 28.523,26.749 
		31.491,26.749 	"/>
	<rect x="13.188" y="16.25" fill="#2E74A7" width="7.344" height="1.5"/>
	<polygon fill="#2E74A7" points="2.071,16.25 2.071,17.75 7.49,17.75 9.125,17.75 9.125,16.25 	"/>
	<polygon fill="#2E74A7" points="24.594,16.25 24.594,17.75 24.895,17.75 29.93,17.75 29.93,16.25 	"/>
	<path fill="#5C5C5C" d="M5.844,30.83c0.739,0,20.734,0.17,20.734,0.17c1.549,0,2.279-0.75,1.945-2.751H3.414
		C3.31,29.479,3.899,30.83,5.844,30.83z"/>
	<path fill="#5C5C5C" d="M4.897,23.249h22.337c-0.451-1.655-0.877-3.058-1.344-4.249H6.535C5.974,20.186,5.449,21.583,4.897,23.249z
		"/>
	<path fill="#5C5C5C" d="M16.689,13.439c-3.233,0-5.417,0.442-7.059,1.561h13.557C21.738,13.911,19.738,13.439,16.689,13.439z"/>
	<path fill="#5C5C5C" d="M16,11.883c2.275,0,4.223-1.398,5.034-3.382H10.965C11.777,10.485,13.724,11.883,16,11.883z"/>
	<path fill="#5C5C5C" d="M16,1c-1.922,0-3.606,0.998-4.575,2.501h9.147C19.605,1.998,17.921,1,16,1z"/>
</g>
</svg>
