<?xml version="1.0" encoding="utf-8"?>
<!-- Generator: Adobe Illustrator 15.0.2, SVG Export Plug-In . SVG Version: 6.00 Build 0)  -->
<!DOCTYPE svg PUBLIC "-//W3C//DTD SVG 1.1//EN" "http://www.w3.org/Graphics/SVG/1.1/DTD/svg11.dtd">
<svg version="1.1" id="Layer_1" xmlns="http://www.w3.org/2000/svg" xmlns:xlink="http://www.w3.org/1999/xlink" x="0px" y="0px"
	 width="32px" height="32px" viewBox="0 0 32 32" enable-background="new 0 0 32 32" xml:space="preserve">
<g>
	<g>
		<path fill="#5C5C5C" d="M21.012,1.198h-5.311h-3.802c-0.296,0-0.581,0.118-0.79,0.326l-7.78,7.749C3.118,9.484,3,9.769,3,10.066
			v10.868v6.041c0,2.066,1.681,3.748,3.748,3.754c0.004,0,0.008,0.002,0.01,0.002h17.014c0.617,0,1.119-0.502,1.119-1.119
			c0-0.615-0.502-1.115-1.119-1.115H6.763c-0.002,0-0.003-0.001-0.005-0.001c-0.839,0-1.521-0.685-1.521-1.521v-6.041V11.27h4.246
			c2.072,0,3.757-1.685,3.757-3.757V3.436h2.462h5.312c0.836,0,1.516,0.682,1.516,1.521c0,0.121,0.021,5.542,0.058,5.651
			c0.146,0.448,0.563,0.772,1.063,0.772c0.482,0,0.896-0.308,1.054-0.738c0.043-0.119,0.065-5.552,0.065-5.686
			C24.766,2.884,23.081,1.198,21.012,1.198z M9.482,9.033H6.741l4.261-4.244v2.725C11.002,8.351,10.32,9.033,9.482,9.033z"/>
		<g>
			<path fill="#5C5C5C" d="M9.867,14.902H7.636c-0.348,0-0.629,0.281-0.629,0.63c0,0.348,0.281,0.629,0.629,0.629h1.726
				c0.068-0.219,0.14-0.438,0.227-0.653C9.672,15.3,9.769,15.1,9.867,14.902z"/>
			<path fill="#5C5C5C" d="M9.018,17.986H7.636c-0.348,0-0.629,0.281-0.629,0.629s0.281,0.63,0.629,0.63h1.392
				C8.992,18.826,8.988,18.404,9.018,17.986z"/>
			<path fill="#5C5C5C" d="M9.314,20.795H7.636c-0.348,0-0.629,0.281-0.629,0.63c0,0.347,0.281,0.63,0.629,0.63H9.79
				c-0.045-0.096-0.097-0.188-0.139-0.285C9.515,21.449,9.408,21.123,9.314,20.795z"/>
			<path fill="#5C5C5C" d="M10.956,23.879h-3.32c-0.348,0-0.629,0.281-0.629,0.629s0.281,0.631,0.629,0.631h4.679
				C11.816,24.77,11.357,24.352,10.956,23.879z"/>
		</g>
	</g>
	<g>
		
			<rect x="24.085" y="20.713" transform="matrix(-0.6158 0.7879 -0.7879 -0.6158 59.5826 18.7034)" fill="#FFFFFF" width="2.292" height="6.332"/>
		<path fill="#6EBCEB" d="M29.604,27.835c-0.666,0.903-1.939,1.095-2.847,0.429l-5.296-3.938c-1.943,1.439-4.568,1.869-6.969,0.9
			c-3.673-1.479-5.458-5.672-3.976-9.346c0.715-1.781,2.083-3.174,3.849-3.925c1.764-0.75,3.716-0.769,5.495-0.051
			c1.779,0.716,3.175,2.083,3.926,3.847c0.729,1.706,0.763,3.583,0.115,5.313l5.273,3.92C30.077,25.654,30.27,26.93,29.604,27.835z
			 M22.325,20.641c0.556-1.375,0.541-2.885-0.04-4.25c-0.581-1.365-1.658-2.421-3.036-2.975c-1.373-0.555-2.882-0.541-4.247,0.04
			c-1.365,0.58-2.423,1.658-2.977,3.035c-1.144,2.839,0.235,6.081,3.076,7.228C17.939,24.859,21.182,23.48,22.325,20.641z
			 M27.082,24.557l-3.223-2.404c-0.241-0.182-0.584-0.129-0.764,0.111c-0.183,0.242-0.132,0.584,0.11,0.764l3.224,2.406
			c0.239,0.18,0.584,0.129,0.764-0.113C27.374,25.077,27.322,24.736,27.082,24.557z"/>
	</g>
</g>
</svg>
