<?xml version="1.0" encoding="utf-8"?>
<!-- Generator: Adobe Illustrator 15.0.2, SVG Export Plug-In . SVG Version: 6.00 Build 0)  -->
<!DOCTYPE svg PUBLIC "-//W3C//DTD SVG 1.1//EN" "http://www.w3.org/Graphics/SVG/1.1/DTD/svg11.dtd">
<svg version="1.1" id="Layer_1" xmlns="http://www.w3.org/2000/svg" xmlns:xlink="http://www.w3.org/1999/xlink" x="0px" y="0px"
	 width="24px" height="24px" viewBox="0 0 24 24" enable-background="new 0 0 24 24" xml:space="preserve">
<g>
	<path id="WhiteBkg" fill="#FFFFFF" d="M22.5,18.451c0,2.109-1.719,3.818-3.838,3.818H5.464c-2.119,0-3.837-1.709-3.837-3.818V5.318
		c0-2.109,1.718-3.818,3.837-3.818h13.198c2.119,0,3.838,1.709,3.838,3.818V18.451z"/>
	<path id="Border" fill="#FFFFFF" stroke="#5C5C5C" stroke-width="2" stroke-miterlimit="10" d="M22.5,18.831
		c0,2.026-1.643,3.669-3.669,3.669H5.168c-2.025,0-3.668-1.643-3.668-3.669V5.168C1.5,3.143,3.143,1.5,5.168,1.5h13.663
		c2.026,0,3.669,1.643,3.669,3.668V18.831z"/>
	<line fill="none" stroke="#5C5C5C" stroke-miterlimit="10" x1="1.5" y1="12" x2="22.5" y2="12"/>
	<line fill="none" stroke="#5C5C5C" stroke-miterlimit="10" x1="12.023" y1="1.729" x2="11.977" y2="22.27"/>
	<rect x="3.618" y="4.752" fill="#2E74A7" width="6.602" height="4.775"/>
	<rect x="13.803" y="4.752" fill="#2E74A7" width="6.602" height="4.775"/>
	<rect x="3.67" y="14.654" fill="#2E74A7" width="6.602" height="4.775"/>
	<rect x="13.854" y="14.654" fill="#2E74A7" width="6.603" height="4.775"/>
</g>
</svg>
