<?xml version="1.0" encoding="UTF-8" standalone="no"?>
<svg
   xmlns:dc="http://purl.org/dc/elements/1.1/"
   xmlns:cc="http://creativecommons.org/ns#"
   xmlns:rdf="http://www.w3.org/1999/02/22-rdf-syntax-ns#"
   xmlns:svg="http://www.w3.org/2000/svg"
   xmlns="http://www.w3.org/2000/svg"
   version="1.1"
   id="svg4227"
   viewBox="0 0 64.000001 64.000001"
   height="64"
   width="64">
  <title
     id="title4783">clip</title>
  <defs
     id="defs4229" />
  <metadata
     id="metadata4232">
    <rdf:RDF>
      <cc:Work
         rdf:about="">
        <dc:format>image/svg+xml</dc:format>
        <dc:type
           rdf:resource="http://purl.org/dc/dcmitype/StillImage" />
        <dc:title>clip</dc:title>
      </cc:Work>
    </rdf:RDF>
  </metadata>
  <g
     transform="translate(0,-988.36216)"
     id="layer1">
    <g
       style="fill:#2e74a7;fill-opacity:1;stroke:none"
       transform="matrix(0.8263394,-0.8263394,0.8263394,0.8263394,-837.58538,201.32818)"
       id="g4200">
      <path
         id="path4202"
         transform="translate(83.5,1006.0497)"
         d="m -69.679688,1.5019531 0,0.00195 a 13.5,13.500001 0 0 0 -13.25,13.4882819 13.5,13.500001 0 0 0 13.25,13.492187 l 36.126954,0 a 10,10.000001 0 0 0 0.01563,0 10,10.000001 0 0 0 10,-10 10,10.000001 0 0 0 -10,-10.0000001 10,10.000001 0 0 0 -0.01563,0 l -29.388672,0 0,0.00195 a 6,6.0000005 0 0 0 -0.04102,-0.00195 6,6.0000005 0 0 0 -6,6.0000001 6,6.0000005 0 0 0 6,6 6,6.0000005 0 0 0 0.04102,-0.002 l 0,0.002 29.388672,0 0,-4.892578 -29.388672,0 0,-0.002 a 1.1069999,1.107 0 0 1 -0.04102,0.002 1.1069999,1.107 0 0 1 -1.107422,-1.107422 1.1069999,1.107 0 0 1 1.107422,-1.107422 1.1069999,1.107 0 0 1 0.04102,0.002 l 0,-0.002 29.388672,0 a 5.1069994,5.1069999 0 0 1 0.01563,0 5.1069994,5.1069999 0 0 1 5.107421,5.107422 5.1069994,5.1069999 0 0 1 -5.107421,5.107422 5.1069994,5.1069999 0 0 1 -0.01563,0 l -36.126954,0 0,-0.0039 a 8.6069994,8.6070004 0 0 1 -8.357421,-8.595703 8.6069994,8.6070004 0 0 1 8.357421,-8.5976569 l 0,0.00195 37.470704,0 0,-4.8945313 -37.470704,0 z"
         style="opacity:1;fill:#2e74a7;fill-opacity:1;stroke:none;stroke-width:0.92720103;stroke-linecap:round;stroke-miterlimit:4;stroke-dasharray:none;stroke-dashoffset:0;stroke-opacity:1" />
    </g>
  </g>
</svg>
