<?xml version="1.0" encoding="utf-8"?>
<!-- Generator: Adobe Illustrator 15.0.2, SVG Export Plug-In . SVG Version: 6.00 Build 0)  -->
<!DOCTYPE svg PUBLIC "-//W3C//DTD SVG 1.1//EN" "http://www.w3.org/Graphics/SVG/1.1/DTD/svg11.dtd">
<svg version="1.1"
	 id="Layer_1" inkscape:version="0.48.3.1 r9886" sodipodi:docname="action.showThumbnailPanel.svg" xmlns:dc="http://purl.org/dc/elements/1.1/" xmlns:cc="http://creativecommons.org/ns#" xmlns:rdf="http://www.w3.org/1999/02/22-rdf-syntax-ns#" xmlns:svg="http://www.w3.org/2000/svg" xmlns:sodipodi="http://sodipodi.sourceforge.net/DTD/sodipodi-0.dtd" xmlns:inkscape="http://www.inkscape.org/namespaces/inkscape"
	 xmlns="http://www.w3.org/2000/svg" xmlns:xlink="http://www.w3.org/1999/xlink" x="0px" y="0px" width="24px" height="24px"
	 viewBox="0 0 24 24" enable-background="new 0 0 24 24" xml:space="preserve">
<g>
	<path fill="#5C5C5C" d="M19.545,20.465c0,1.4-1.136,2.535-2.537,2.535H6.99c-1.399,0-2.535-1.135-2.535-2.535V3.536
		C4.455,2.135,5.591,1,6.99,1h10.018c1.401,0,2.537,1.135,2.537,2.536V20.465z"/>
	<rect x="4.94" y="4.644" fill="#FFFFFF" width="2.071" height="2.071"/>
	<rect x="4.94" y="8.786" fill="#FFFFFF" width="2.071" height="2.071"/>
	<rect x="4.94" y="12.928" fill="#FFFFFF" width="2.071" height="2.07"/>
	<rect x="4.94" y="17.178" fill="#FFFFFF" width="2.071" height="2.07"/>
	<rect x="16.692" y="4.699" fill="#FFFFFF" width="2.069" height="2.071"/>
	<rect x="16.692" y="8.841" fill="#FFFFFF" width="2.069" height="2.071"/>
	<rect x="16.692" y="12.982" fill="#FFFFFF" width="2.069" height="2.072"/>
	<rect x="16.692" y="17.231" fill="#FFFFFF" width="2.069" height="2.07"/>
	<rect x="8.607" y="5.679" fill="#FFFFFF" width="6.783" height="4.143"/>
	<rect x="8.608" y="14.092" fill="#FFFFFF" width="6.782" height="4.139"/>
</g>
</svg>
