<?xml version="1.0" encoding="utf-8"?>
<!-- Generator: Adobe Illustrator 15.0.2, SVG Export Plug-In . SVG Version: 6.00 Build 0)  -->
<!DOCTYPE svg PUBLIC "-//W3C//DTD SVG 1.1//EN" "http://www.w3.org/Graphics/SVG/1.1/DTD/svg11.dtd">
<svg version="1.1" id="Layer_1" xmlns="http://www.w3.org/2000/svg" xmlns:xlink="http://www.w3.org/1999/xlink" x="0px" y="0px"
	 width="24px" height="24px" viewBox="0 0 24 24" enable-background="new 0 0 24 24" xml:space="preserve">
<g>
	<g>
		<g>
			<path fill="#FFFFFF" d="M9.08,6.78c0.618,0,1.121-0.503,1.121-1.121v-2.01L7.058,6.78H9.08z"/>
			<path fill="#FFFFFF" d="M17.587,2.65h-3.918h-1.817v3.009c0,1.529-1.243,2.772-2.772,2.772H5.947v4.68h12.76
				c-0.001-4.605-0.001-9.327-0.001-9.339C18.706,3.154,18.204,2.65,17.587,2.65z"/>
			<path fill="#5C5C5C" d="M5.947,13.111v-4.68H9.08c1.529,0,2.772-1.244,2.772-2.772V2.65h1.817h3.918
				c0.617,0,1.119,0.504,1.119,1.123c0,0.012,0,4.733,0.001,9.339h1.648c0.001-4.605,0.001-9.325,0.001-9.339
				c0-1.529-1.242-2.772-2.77-2.772h-3.918h-2.805c-0.219,0-0.43,0.086-0.583,0.241L4.54,6.958C4.384,7.113,4.297,7.324,4.297,7.542
				v5.569H5.947z M10.201,5.659c0,0.618-0.503,1.121-1.121,1.121H7.058l3.144-3.131V5.659z"/>
		</g>
	</g>
	<g>
		<rect x="1.105" y="14.03" fill="#6EBCEB" width="21.789" height="8.97"/>
		<g>
			<path fill="#FFFFFF" d="M19.543,19.22c-0.026-0.723-0.054-1.598-0.054-2.47h-0.018c-0.196,0.766-0.446,1.623-0.678,2.327
				l-0.731,2.345h-1.062l-0.641-2.317c-0.196-0.714-0.393-1.571-0.545-2.354h-0.018c-0.026,0.811-0.063,1.739-0.099,2.487
				l-0.115,2.283h-1.257l0.383-6.011h1.81l0.589,2.006c0.196,0.696,0.375,1.445,0.508,2.149h0.036
				c0.16-0.696,0.365-1.489,0.57-2.157l0.634-1.998h1.783l0.32,6.011h-1.319L19.543,19.22z"/>
			<path fill="#FFFFFF" d="M2.953,15.599c0.499-0.079,1.15-0.133,1.828-0.133c1.15,0,1.899,0.214,2.47,0.642
				c0.624,0.464,1.017,1.203,1.017,2.266c0,1.148-0.419,1.942-0.99,2.434c-0.633,0.526-1.605,0.775-2.782,0.775
				c-0.705,0-1.213-0.045-1.543-0.089V15.599z M4.308,20.495c0.116,0.027,0.312,0.027,0.473,0.027
				c1.239,0.007,2.051-0.67,2.051-2.105c0-1.249-0.731-1.909-1.908-1.909c-0.294,0-0.5,0.027-0.615,0.055V20.495z"/>
			<path fill="#FFFFFF" d="M13.562,21.359c-0.24,0.116-0.812,0.258-1.533,0.258c-2.078,0-3.148-1.302-3.148-3.014
				c0-2.051,1.462-3.183,3.281-3.183c0.705,0,1.239,0.134,1.481,0.267l-0.286,1.07c-0.267-0.115-0.651-0.223-1.141-0.223
				c-1.07,0-1.908,0.652-1.908,1.988c0,1.203,0.713,1.962,1.917,1.962c0.419,0,0.866-0.079,1.142-0.195L13.562,21.359z"/>
		</g>
	</g>
</g>
</svg>
