<?xml version="1.0" encoding="utf-8"?>
<!-- Generator: Adobe Illustrator 15.0.2, SVG Export Plug-In . SVG Version: 6.00 Build 0)  -->
<!DOCTYPE svg PUBLIC "-//W3C//DTD SVG 1.1//EN" "http://www.w3.org/Graphics/SVG/1.1/DTD/svg11.dtd">
<svg version="1.1" id="Layer_1" xmlns="http://www.w3.org/2000/svg" xmlns:xlink="http://www.w3.org/1999/xlink" x="0px" y="0px"
	 width="24px" height="24px" viewBox="0 0 24 24" enable-background="new 0 0 24 24" xml:space="preserve">
<g>
	<g>
		<path fill="#5C5C5C" d="M12,3.766c-4.541,0-8.234,3.693-8.234,8.234c0,4.539,3.693,8.233,8.234,8.233
			c4.54,0,8.235-3.694,8.235-8.233C20.234,7.459,16.539,3.766,12,3.766z"/>
		<path fill="#FFFFFF" d="M12,4.509c-4.131,0-7.492,3.36-7.492,7.492c0,4.13,3.36,7.491,7.492,7.491c0,0,0-3.362,0-7.491
			C12,7.868,12,4.509,12,4.509z"/>
	</g>
	<g>
		<path fill="#5C5C5C" d="M9.524,2.191c0.382-0.093,0.839-0.187,0.804-0.678c-0.035-0.491-0.516-0.539-0.804-0.478
			c0,0-0.038,0.009-0.058,0.013C5.288,2.01,2.004,5.297,1.047,9.475c-0.004,0.017,0.002,0-0.012,0.049
			c-0.073,0.277-0.049,0.757,0.384,0.792s0.657-0.355,0.726-0.643c0.01-0.041,0.059-0.198,0.065-0.223
			c0.92-3.547,3.71-6.333,7.26-7.245C9.488,2.201,9.524,2.191,9.524,2.191z"/>
		<path fill="#5C5C5C" d="M21.823,9.61c0.094,0.382,0.188,0.838,0.679,0.803c0.49-0.035,0.538-0.515,0.478-0.803
			c0,0-0.009-0.039-0.014-0.059c-0.96-4.177-4.248-7.461-8.426-8.419c-0.017-0.003,0,0.001-0.049-0.011
			c-0.277-0.074-0.757-0.05-0.792,0.383s0.354,0.656,0.642,0.726c0.041,0.01,0.198,0.059,0.222,0.064
			c3.547,0.92,6.334,3.71,7.246,7.259C21.814,9.574,21.823,9.61,21.823,9.61z"/>
		<path fill="#5C5C5C" d="M14.475,21.808c-0.383,0.094-0.839,0.188-0.804,0.679s0.516,0.539,0.804,0.478
			c0,0,0.038-0.009,0.058-0.014c4.178-0.96,7.462-4.247,8.42-8.426c0.003-0.017-0.002,0,0.01-0.049
			c0.074-0.276,0.05-0.757-0.383-0.792c-0.434-0.035-0.656,0.354-0.727,0.643c-0.009,0.041-0.059,0.198-0.064,0.222
			c-0.921,3.548-3.71,6.333-7.26,7.246C14.511,21.799,14.475,21.808,14.475,21.808z"/>
		<path fill="#5C5C5C" d="M2.177,14.426c-0.093-0.382-0.187-0.838-0.678-0.803c-0.491,0.035-0.539,0.517-0.477,0.803
			c0,0,0.009,0.04,0.013,0.059c0.96,4.18,4.247,7.463,8.425,8.42c0.016,0.005,0-0.001,0.05,0.012
			c0.276,0.072,0.756,0.048,0.792-0.385c0.035-0.434-0.355-0.655-0.643-0.727c-0.041-0.009-0.198-0.059-0.222-0.064
			c-3.548-0.921-6.333-3.709-7.246-7.259C2.186,14.463,2.177,14.426,2.177,14.426z"/>
	</g>
</g>
</svg>
