<?xml version="1.0" encoding="utf-8"?>
<!-- Generator: Adobe Illustrator 15.0.2, SVG Export Plug-In . SVG Version: 6.00 Build 0)  -->
<!DOCTYPE svg PUBLIC "-//W3C//DTD SVG 1.1//EN" "http://www.w3.org/Graphics/SVG/1.1/DTD/svg11.dtd">
<svg version="1.1" id="Layer_1" xmlns="http://www.w3.org/2000/svg" xmlns:xlink="http://www.w3.org/1999/xlink" x="0px" y="0px"
	 width="32px" height="32px" viewBox="0 0 32 32" enable-background="new 0 0 32 32" xml:space="preserve">
<g>
	<g>
		<path fill="#2E74A7" d="M12.06,6.366c-0.206-0.691-0.928-1.088-1.624-0.882C7.479,6.358,4.922,7.952,3.235,9.972
			C2.772,10.526,2.846,11.35,3.4,11.813c0.245,0.204,0.542,0.304,0.837,0.304c0.374,0,0.745-0.16,1.003-0.469
			c1.36-1.628,3.469-2.928,5.937-3.658C11.87,7.785,12.264,7.058,12.06,6.366z"/>
		<path fill="#2E74A7" d="M19.986,24.177c-1.284,0.31-2.63,0.467-3.997,0.467c-1.072,0.021-2.186-0.1-3.233-0.297
			c-0.712-0.136-1.393,0.331-1.527,1.04s0.332,1.393,1.041,1.527c1.203,0.228,2.448,0.343,3.703,0.343c0.006,0,0.012,0,0.018,0
			c1.573,0,3.125-0.183,4.609-0.541c0.701-0.168,1.133-0.875,0.963-1.576C21.395,24.438,20.679,24.006,19.986,24.177z"/>
		<path fill="#2E74A7" d="M3.605,16.699c-0.086-0.717-0.737-1.221-1.453-1.143c-0.717,0.086-1.229,0.736-1.143,1.453
			c0.334,2.787,2.02,5.365,4.75,7.257c0.227,0.158,0.486,0.233,0.743,0.233c0.414,0,0.821-0.196,1.075-0.561
			c0.411-0.594,0.264-1.408-0.33-1.818C5.142,20.659,3.848,18.733,3.605,16.699z"/>
		<path fill="#2E74A7" d="M25.827,8.959c0.371-0.619,0.171-1.421-0.448-1.792c-2.302-1.384-5.076-2.221-8.022-2.421
			c-0.728-0.04-1.342,0.495-1.391,1.215c-0.049,0.72,0.495,1.343,1.214,1.392c2.535,0.173,4.904,0.883,6.854,2.054
			c0.211,0.127,0.441,0.187,0.671,0.187C25.149,9.593,25.582,9.367,25.827,8.959z"/>
		<path fill="#2E74A7" d="M30.272,12.486c-0.284-0.663-1.053-0.97-1.716-0.685s-0.97,1.053-0.686,1.716
			c0.341,0.794,0.514,1.623,0.516,2.46c0,2.073-1.086,4.087-3.057,5.671c-0.563,0.452-0.651,1.275-0.2,1.837
			c0.258,0.321,0.637,0.488,1.02,0.488c0.287,0,0.576-0.095,0.817-0.288c2.602-2.09,4.033-4.827,4.033-7.71
			C30.998,14.782,30.754,13.608,30.272,12.486z"/>
	</g>
	<polygon fill="#5C5C5C" points="26.429,15.962 21.464,13.095 21.464,14.671 10.483,14.671 10.483,13.095 5.519,15.962 
		10.483,18.828 10.483,17.284 21.464,17.284 21.464,18.828 	"/>
	<polygon fill="#5C5C5C" points="17.28,12.925 18.856,12.925 15.99,7.96 13.124,12.925 14.667,12.925 14.667,19.029 13.124,19.029 
		15.99,23.994 18.856,19.029 17.28,19.029 	"/>
</g>
</svg>
