<?xml version="1.0" encoding="utf-8"?>
<!-- Generator: Adobe Illustrator 15.0.2, SVG Export Plug-In . SVG Version: 6.00 Build 0)  -->
<!DOCTYPE svg PUBLIC "-//W3C//DTD SVG 1.1//EN" "http://www.w3.org/Graphics/SVG/1.1/DTD/svg11.dtd">
<svg version="1.1" id="Layer_1" xmlns="http://www.w3.org/2000/svg" xmlns:xlink="http://www.w3.org/1999/xlink" x="0px" y="0px"
	 width="80px" height="80px" viewBox="0 0 80 80" enable-background="new 0 0 80 80" xml:space="preserve">
<g>
	<g>
		<path fill="#5C5C5C" d="M35.83,41.7c0.525-2.589,1.664-4.958,3.317-6.898v-3.999c0-3.82-3.997-6.92-8.928-6.92l-5.032,20.015
			c1.783-1.375,3.937-2.197,6.269-2.197H35.83z"/>
		<path fill="#5C5C5C" d="M12.816,23.883c-4.931,0-8.927,3.1-8.927,6.92v20.767c0,3.823,3.996,6.919,8.927,6.919h7.636v-4.245
			L12.816,23.883z"/>
		<polygon fill="#6EBCEB" points="16.909,27.753 21.517,45.003 26.127,27.753 21.517,23.883 		"/>
		<circle fill="#5C5C5C" cx="21.518" cy="12.492" r="9.492"/>
	</g>
	<g>
		<path fill="#2E74A7" d="M76.111,69.894c0,3.925-2.647,7.106-5.902,7.106H31.456c-3.262,0-5.902-3.182-5.902-7.106V53.909
			c0-3.925,2.641-7.106,5.902-7.106h38.753c3.255,0,5.902,3.182,5.902,7.106V69.894z"/>
		<path fill="#FFFFFF" d="M61.603,61.903c0,5.948-4.822,10.771-10.772,10.771c-5.945,0-10.771-4.822-10.771-10.771
			c0-5.952,4.825-10.772,10.771-10.772C56.78,51.131,61.603,55.951,61.603,61.903z"/>
		<path fill="#6EBCEB" d="M62.358,44.74h-3.379c0-4.491-3.657-8.146-8.149-8.146c-4.485,0-8.145,3.654-8.145,8.146h-3.385
			c0-6.356,5.172-11.527,11.529-11.527C57.187,33.213,62.358,38.384,62.358,44.74z"/>
		<polygon fill="#5C5C5C" points="58.82,60.213 52.523,60.213 52.523,53.855 49.139,53.855 49.139,60.213 42.654,60.213 
			42.654,63.595 49.139,63.595 49.139,70.021 52.523,70.021 52.523,63.595 58.82,63.595 		"/>
	</g>
</g>
</svg>
