<?xml version="1.0" encoding="utf-8"?>
<!-- Generator: Adobe Illustrator 15.0.2, SVG Export Plug-In . SVG Version: 6.00 Build 0)  -->
<!DOCTYPE svg PUBLIC "-//W3C//DTD SVG 1.1//EN" "http://www.w3.org/Graphics/SVG/1.1/DTD/svg11.dtd">
<svg version="1.1" id="Layer_1" xmlns="http://www.w3.org/2000/svg" xmlns:xlink="http://www.w3.org/1999/xlink" x="0px" y="0px"
	 width="80px" height="80px" viewBox="0 0 80 80" enable-background="new 0 0 80 80" xml:space="preserve">
<g>
	<rect x="25.275" y="12.314" fill="#FFFFFF" width="28.123" height="55.708"/>
	<path fill="#2E74A7" d="M39.996,3C19.596,3,3,19.597,3,40.004C3,60.399,19.596,77,39.996,77C60.396,77,77,60.399,77,40.004
		C77,19.597,60.396,3,39.996,3z M48.988,62.138c-2.144,0.838-3.854,1.482-5.125,1.93c-1.276,0.445-2.757,0.66-4.45,0.66
		c-2.592,0-4.609-0.629-6.05-1.9c-1.437-1.256-2.157-2.867-2.157-4.806c0-0.768,0.052-1.543,0.164-2.324
		c0.105-0.793,0.279-1.682,0.517-2.684l2.678-9.481c0.241-0.91,0.441-1.761,0.601-2.575c0.166-0.812,0.248-1.553,0.248-2.223
		c0-1.217-0.248-2.064-0.744-2.535c-0.501-0.476-1.455-0.719-2.864-0.719c-0.693,0-1.408,0.11-2.131,0.321
		c-0.724,0.228-1.347,0.431-1.867,0.628l0.714-2.919c1.752-0.724,3.425-1.324,5.03-1.835c1.597-0.511,3.109-0.76,4.533-0.76
		c2.577,0,4.57,0.615,5.953,1.865c1.401,1.245,2.09,2.87,2.09,4.849c0,0.414-0.048,1.147-0.14,2.182
		c-0.096,1.044-0.279,1.991-0.539,2.854l-2.664,9.45c-0.217,0.756-0.408,1.625-0.582,2.594c-0.178,0.973-0.262,1.711-0.262,2.211
		c0,1.252,0.279,2.105,0.844,2.563c0.559,0.444,1.537,0.683,2.924,0.683c0.65,0,1.388-0.113,2.206-0.342
		c0.824-0.229,1.427-0.438,1.787-0.603L48.988,62.138z M48.517,24.984c-1.248,1.161-2.736,1.743-4.494,1.743
		c-1.753,0-3.258-0.582-4.515-1.743c-1.253-1.159-1.882-2.558-1.882-4.208c0-1.641,0.629-3.057,1.882-4.221
		c1.257-1.168,2.762-1.752,4.515-1.752c1.758,0,3.246,0.584,4.494,1.752c1.248,1.164,1.869,2.58,1.869,4.221
		C50.386,22.427,49.765,23.825,48.517,24.984z"/>
</g>
</svg>
