<?xml version="1.0" encoding="utf-8"?>
<!-- Generator: Adobe Illustrator 15.0.2, SVG Export Plug-In . SVG Version: 6.00 Build 0)  -->
<!DOCTYPE svg PUBLIC "-//W3C//DTD SVG 1.1//EN" "http://www.w3.org/Graphics/SVG/1.1/DTD/svg11.dtd">
<svg version="1.1" id="Layer_1" xmlns="http://www.w3.org/2000/svg" xmlns:xlink="http://www.w3.org/1999/xlink" x="0px" y="0px"
	 width="80px" height="80px" viewBox="0 0 80 80" enable-background="new 0 0 80 80" xml:space="preserve">
<g>
	<path fill="#2E74A7" d="M51.134,41.131c0.698-0.4,1.021-1.193,0.867-1.938v0.003c-0.578-2.042-1.414-4.047-2.529-5.967
		c-1.111-1.924-2.426-3.648-3.905-5.17l0.01-0.002c-0.571-0.508-1.426-0.621-2.115-0.219c-0.227,0.131-0.409,0.296-0.557,0.494
		l-1.188,1.361c-2.104-1.839-4.559-3.276-7.256-4.195l0.58-1.71c0.099-0.219,0.154-0.465,0.154-0.723
		c0-0.802-0.524-1.485-1.251-1.72l0.008,0.003c-2.059-0.519-4.214-0.795-6.435-0.795c-2.22,0-4.374,0.276-6.435,0.795
		c-0.72,0.237-1.238,0.918-1.238,1.716c0,0.258,0.056,0.504,0.149,0.723l0.583,1.709c-2.7,0.918-5.155,2.357-7.254,4.196
		l-1.19-1.361c-0.145-0.192-0.33-0.363-0.554-0.494c-0.696-0.402-1.546-0.289-2.115,0.221H9.47
		c-1.479,1.524-2.795,3.248-3.907,5.174c-1.11,1.92-1.946,3.923-2.523,5.968l-0.001-0.008c-0.157,0.745,0.17,1.538,0.864,1.938
		c0.221,0.133,0.462,0.207,0.705,0.234l1.754,0.348c-0.266,1.352-0.413,2.754-0.413,4.193c0,1.436,0.147,2.83,0.413,4.191
		l-1.754,0.35c-0.236,0.029-0.479,0.1-0.703,0.229c-0.695,0.402-1.022,1.199-0.866,1.949l0.001-0.006
		c0.578,2.033,1.413,4.043,2.523,5.961c1.114,1.924,2.428,3.658,3.907,5.174H9.464c0.572,0.508,1.418,0.617,2.115,0.219
		c0.224-0.125,0.41-0.299,0.554-0.494l1.19-1.365c2.099,1.842,4.554,3.279,7.254,4.195l-0.583,1.707
		c-0.094,0.223-0.149,0.467-0.149,0.727c0,0.807,0.524,1.484,1.247,1.725l-0.003-0.008c2.059,0.521,4.211,0.801,6.432,0.801
		c2.223,0,4.376-0.279,6.432-0.801l-0.008,0.008c0.727-0.24,1.251-0.918,1.251-1.725c0-0.256-0.053-0.498-0.154-0.727l-0.58-1.707
		c2.697-0.922,5.152-2.354,7.254-4.195l1.189,1.365c0.143,0.195,0.33,0.365,0.557,0.49c0.689,0.396,1.544,0.293,2.115-0.215h-0.005
		c1.481-1.525,2.794-3.25,3.904-5.18c1.111-1.912,1.947-3.922,2.522-5.967l0.003,0.018c0.153-0.754-0.169-1.547-0.867-1.949
		c-0.22-0.129-0.458-0.205-0.706-0.229l-1.754-0.35c0.268-1.361,0.412-2.756,0.412-4.191s-0.145-2.842-0.412-4.193l1.754-0.348
		C50.671,41.342,50.909,41.264,51.134,41.131z M27.518,57.842c-6.584,0-11.938-5.357-11.938-11.936
		c0-6.585,5.354-11.943,11.938-11.943c6.582,0,11.938,5.357,11.938,11.943C39.456,52.484,34.1,57.842,27.518,57.842z"/>
	<path fill="#5C5C5C" d="M76.096,25.442l-1.531-0.302c0.145-0.724,0.222-1.47,0.222-2.234s-0.077-1.511-0.222-2.231l1.531-0.301
		c0.133-0.018,0.268-0.06,0.396-0.134c0.386-0.225,0.573-0.666,0.489-1.087l-0.005,0.005c-0.328-1.143-0.793-2.258-1.414-3.332
		c-0.619-1.076-1.356-2.041-2.181-2.893h0.003c-0.32-0.282-0.793-0.346-1.186-0.122c-0.122,0.075-0.222,0.167-0.308,0.278
		l-1.031,1.179c-1.12-0.98-2.431-1.746-3.866-2.238l0.503-1.48c0.056-0.125,0.087-0.261,0.087-0.405c0-0.45-0.291-0.827-0.696-0.961
		v0.001c-1.146-0.29-2.351-0.444-3.594-0.444c-1.24,0-2.442,0.154-3.592,0.444l0.003-0.001c-0.405,0.134-0.696,0.511-0.696,0.961
		c0,0.144,0.024,0.279,0.082,0.405l0.506,1.48c-1.44,0.492-2.751,1.258-3.866,2.235l-1.036-1.179
		c-0.077-0.108-0.178-0.201-0.308-0.276c-0.384-0.224-0.863-0.16-1.176,0.122l0,0c-0.831,0.853-1.563,1.82-2.181,2.893
		c-0.623,1.073-1.091,2.196-1.413,3.333v-0.007c-0.09,0.421,0.091,0.862,0.481,1.087c0.12,0.072,0.258,0.116,0.393,0.134
		l1.529,0.301c-0.145,0.72-0.224,1.467-0.224,2.231s0.079,1.511,0.224,2.234l-1.529,0.302c-0.135,0.019-0.265,0.061-0.391,0.131
		c-0.388,0.225-0.573,0.667-0.483,1.086v-0.005c0.322,1.142,0.79,2.261,1.413,3.337c0.617,1.075,1.35,2.039,2.181,2.889l0,0
		c0.313,0.284,0.792,0.35,1.176,0.123c0.13-0.072,0.23-0.165,0.308-0.277l1.036-1.178c1.115,0.979,2.426,1.744,3.866,2.234
		l-0.506,1.481c-0.056,0.123-0.082,0.26-0.082,0.404c0,0.449,0.291,0.83,0.696,0.964l-0.003-0.005
		c1.149,0.292,2.352,0.445,3.595,0.445c1.24,0,2.444-0.153,3.591-0.445v0.005c0.405-0.135,0.699-0.511,0.699-0.964
		c0-0.145-0.034-0.281-0.09-0.404l-0.503-1.482c1.436-0.489,2.746-1.254,3.866-2.236l1.031,1.181
		c0.079,0.11,0.186,0.201,0.313,0.273c0.388,0.225,0.86,0.165,1.181-0.119h-0.003c0.827-0.854,1.563-1.813,2.183-2.893
		c0.619-1.072,1.084-2.191,1.412-3.333l0.005,0.005c0.084-0.419-0.104-0.861-0.489-1.086C76.363,25.499,76.231,25.46,76.096,25.442z
		 M63.293,29.906c-3.863,0-6.997-3.136-6.997-7c0-3.865,3.134-7,6.997-7c3.869,0,7.003,3.135,7.003,7
		C70.296,26.77,67.162,29.906,63.293,29.906z"/>
	<path fill="#5C5C5C" d="M27.515,39.157c-3.717,0-6.747,3.031-6.747,6.75c0,3.723,3.03,6.748,6.747,6.748
		c3.723,0,6.753-3.025,6.753-6.748C34.268,42.188,31.237,39.157,27.515,39.157z"/>
	<circle fill="#5C5C5C" cx="63.293" cy="22.907" r="3.166"/>
</g>
</svg>
